<svg width="800" height="758" viewBox="0 0 800 758" fill="none" xmlns="http://www.w3.org/2000/svg">
<path opacity="0.974" d="M306.215 0.5V66.2363L305.693 66.2139C281.202 65.1678 259.838 56.7028 241.618 40.8271C238.461 48.3108 237.617 55.6166 239.062 62.7578L238.101 63.0254C231.83 45.4291 227.073 27.3541 223.82 8.80176C220.64 5.25354 217.777 3.85696 215.206 4.28516C212.593 4.72057 210.038 7.07554 207.595 11.6465C194.644 42.8276 191.323 75.101 197.635 108.479L197.726 108.959L197.247 109.061C185.257 111.593 173.309 112.573 161.403 112.002C173.304 122.475 186.249 131.663 200.246 139.564L200.794 139.873L200.37 140.337C168.741 174.947 134.959 207.307 99.0215 237.418C97.3536 244.45 98.7575 250.91 103.256 256.841L103.461 257.11L103.286 257.4C78.1929 299.178 48.2061 337.266 13.3271 371.667C12.0253 380.55 8.20513 388.181 1.86914 394.552C0.0378012 400.114 0.0442441 405.668 1.89062 411.23C7.42226 421.495 14.0586 430.973 21.8027 439.667L21.9297 439.811V440.002C21.8275 463.938 30.8117 483.317 48.8896 498.185L48.8994 498.192L48.9082 498.201C59.0069 507.364 69.8667 515.402 81.4893 522.31C92.2408 518.661 103.186 517.247 114.323 518.072L114.569 518.091L114.705 518.297C124.086 532.643 136.806 542.555 152.879 548.049C183.818 540.113 208.406 523.089 226.658 496.963C227.13 491.769 227.602 486.576 228.074 481.383C228.551 476.145 229.027 470.907 229.503 465.669L229.518 465.498L229.636 465.372C243.551 450.499 258.33 436.675 273.97 423.898L273.991 423.881L274.014 423.866L274.281 423.698C275.617 422.893 276.932 422.575 278.203 422.829C279.548 423.098 280.746 423.987 281.812 425.393C320.302 471.383 342.722 524.334 349.069 584.232L349.073 584.271L349.071 584.311C346.046 643.381 334.698 700.789 315.029 756.538C419.898 742.594 511.433 699.824 589.644 628.219C601.734 614.483 613.139 600.226 623.86 585.447C638.805 557.256 650.692 527.777 659.52 497.005L659.737 496.244L660.331 496.768C688.77 521.844 721.078 540.375 757.257 552.366C770.478 554.252 783.698 554.257 796.919 552.382C798.008 551.367 798.828 550.17 799.384 548.784C761.621 526.345 743.078 492.916 743.786 448.563L743.802 447.549L744.597 448.18C757.024 458.043 766.889 470.123 774.191 484.418C778.431 471.735 781.925 458.761 784.669 445.496L785.224 442.76C789.702 417.784 787.425 396.204 778.437 377.99C769.447 359.775 753.718 344.873 731.2 333.302L729.778 332.57L731.363 332.361C751.73 329.668 767.671 319.925 779.22 303.113C774.663 301.518 770.106 299.924 765.549 298.329C760.787 296.663 756.025 294.996 751.264 293.329L751.131 293.282L751.042 293.174C733.998 272.326 714.973 253.3 693.969 236.101L693.504 235.72L693.964 235.332C702.818 227.865 712.053 220.915 721.668 214.48C713.623 212.315 705.438 210.987 697.113 210.499L697.166 209.5C718.175 210.483 737.79 205.908 756.021 195.771C736.78 187.435 718.023 178.039 699.752 167.576L699.709 167.552L699.672 167.52C672.856 144.156 641.527 130.865 605.67 127.641L604.315 127.519L605.426 126.734C619.967 116.461 629.408 102.799 633.765 85.7305C632.896 83.1254 632.027 80.5167 631.158 77.9111C617.768 86.529 603.102 91.2034 587.166 91.9277L587.081 91.9316L587 91.9082C554.846 82.3383 522.028 76.6304 488.544 74.7852L487.821 74.7451L488.114 74.083C493.847 61.1279 494.4 48.1726 489.792 35.1875C483.517 41.2646 476.522 46.3495 468.806 50.4414L468.724 50.4854L468.632 50.4961C452.347 52.4674 436.128 51.993 419.978 49.0742C411.559 49.6967 404.052 52.5189 397.446 57.541L397.085 57.8154L396.776 57.4824C395.559 56.1696 395.123 54.7647 395.693 53.3389C396.236 51.9822 397.647 50.7353 399.758 49.5625L399.769 49.5566L399.781 49.5508L401.327 48.8115C408.72 45.3489 416.427 42.8038 424.448 41.1719C400.237 24.8749 374.045 20.3627 345.84 27.627L345.516 27.71L345.314 27.4434C338.221 17.9947 330.665 9.01341 322.642 0.5H306.215Z" fill="black" stroke="black"/>
<path fill-rule="evenodd" clip-rule="evenodd" d="M262.858 382.857C285.681 385.237 308.538 385.711 331.429 384.286C356.004 368.271 373.146 346.368 382.858 318.571C377.604 298.517 370.935 278.994 362.858 260C360.595 255.809 360.595 252 362.858 248.571C390.498 269.074 413.832 293.837 432.858 322.857C470.341 377.823 496.055 437.823 510.001 502.857C512.532 529.7 511.581 556.365 507.143 582.857C503.478 517.757 484.432 457.757 450.001 402.857C440.578 390.571 430.101 379.143 418.572 368.571C427.343 403.106 423.058 435.963 405.715 467.143C432.169 508.708 441.218 553.948 432.858 602.857C425.189 643.508 409.475 680.651 385.715 714.285C469.209 683.677 528.735 626.534 564.286 542.857C596.763 460.937 599.62 378.08 572.858 294.286C534.795 210.06 470.509 157.679 380.001 137.143C371.004 109.67 360.049 83.0038 347.144 57.143C341.332 47.4018 334.189 38.8304 325.715 31.4287C320.349 47.2316 318.921 63.4218 321.429 80.0001C326.706 98.2632 331.466 116.359 335.715 134.286C326.012 126.021 317.918 116.497 311.429 105.714C310.535 116.901 314.344 126.901 322.858 135.714C288.406 138.31 256.026 147.834 225.715 164.286C220.478 169.524 215.238 174.762 210.001 180C210.149 173.111 211.101 166.444 212.858 160C185.155 188.658 156.584 216.277 127.144 242.857C129.407 250.546 128.455 258.166 124.287 265.714C100.224 307.891 70.7009 345.988 35.7153 380C31.5895 387.3 28.2552 394.917 25.7153 402.857C29.1467 412.491 34.3839 421.063 41.4295 428.571C46.0924 441.514 48.9495 454.845 50.001 468.571C61.5981 479.228 73.9781 488.754 87.1438 497.143C110.347 491.211 133.681 486.925 157.144 484.285C147.621 490 138.095 495.714 128.572 501.428C135.898 510.191 144.469 517.334 154.287 522.857C192.147 513.703 210.718 489.891 210.001 451.428C226.704 438.537 241.464 423.774 254.286 407.143C236.166 394.766 216.167 386.194 194.287 381.428C217.247 375.88 240.104 376.354 262.858 382.857Z" fill="#F1F1F1"/>
<path fill-rule="evenodd" clip-rule="evenodd" d="M388.572 42.857C379.601 39.5976 370.078 39.1213 360.001 41.4284C355.409 44.4256 353.507 48.7113 354.287 54.2856C365.167 49.1924 376.595 45.383 388.572 42.857Z" fill="#14CDC8"/>
<path fill-rule="evenodd" clip-rule="evenodd" d="M474.286 68.5715C451.935 65.2683 429.078 64.792 405.715 67.1429C395.278 69.954 389.086 76.1446 387.143 85.7143C392.7 81.8192 398.892 79.4383 405.715 78.5714C429.358 79.1872 452.215 75.8537 474.286 68.5715Z" fill="#14CDC8"/>
<path fill-rule="evenodd" clip-rule="evenodd" d="M268.572 71.4285C260.469 70.5776 259.041 72.4825 264.286 77.1428C266.766 89.0619 262.481 98.1093 251.429 104.286C236.732 111.882 221.492 118.072 205.715 122.857C224.927 126.795 243.975 126.319 262.858 121.428C282.946 106.151 284.852 89.4848 268.572 71.4285Z" fill="#14CDC8"/>
<path fill-rule="evenodd" clip-rule="evenodd" d="M600 108.571C589.524 106.666 579.048 104.762 568.571 102.857C537.723 94.6584 506.294 92.2773 474.286 95.7141C450.617 99.4507 430.617 109.927 414.286 127.143C427.92 124.178 441.254 119.417 454.286 112.857C492.732 104.138 531.303 103.662 570 111.428C580.237 111.322 590.237 110.37 600 108.571Z" fill="#14CDC8"/>
<path fill-rule="evenodd" clip-rule="evenodd" d="M568.572 102.857C579.048 104.762 589.524 106.667 600.001 108.571C602.255 107.763 604.16 106.335 605.715 104.286C593.37 102.86 580.989 102.384 568.572 102.857Z" fill="black"/>
<path fill-rule="evenodd" clip-rule="evenodd" d="M628.572 145.714C619.948 145.244 611.376 145.72 602.858 147.143C613.958 149.255 624.434 153.065 634.286 158.571C653.736 176.874 676.593 187.35 702.857 190C687.168 177.869 670.978 166.44 654.286 155.714C645.093 153.142 636.521 149.809 628.572 145.714Z" fill="#14CDC8"/>
<path fill-rule="evenodd" clip-rule="evenodd" d="M600.001 200C583.396 197.926 568.158 201.259 554.286 210C567.62 210.951 580.953 211.905 594.286 212.857C620.612 225.394 648.231 230.157 677.143 227.143C680.492 225.945 683.349 224.043 685.715 221.428C655.025 221.374 626.454 214.231 600.001 200Z" fill="#14CDC8"/>
<path fill-rule="evenodd" clip-rule="evenodd" d="M280.001 214.286C263.921 213.366 248.206 215.271 232.858 220C230.158 218.843 228.252 216.937 227.144 214.286C220.318 228.726 211.272 241.583 200.001 252.857C208.678 251.637 216.772 248.303 224.286 242.857C240.286 248.466 254.095 245.131 265.715 232.857C276.041 230.157 286.518 228.251 297.144 227.143C291.746 222.103 286.032 217.817 280.001 214.286Z" fill="black"/>
<path fill-rule="evenodd" clip-rule="evenodd" d="M351.429 211.428C347.506 210.98 343.695 211.457 340.001 212.857C403.426 247.708 448.666 298.662 475.715 365.714C467.429 287.442 426.001 236.014 351.429 211.428Z" fill="black"/>
<path fill-rule="evenodd" clip-rule="evenodd" d="M245.715 222.857C239.69 225.403 233.975 228.737 228.572 232.857C233.635 237.105 239.35 238.057 245.715 235.714C249.224 231.457 249.224 227.171 245.715 222.857Z" fill="#14CDC8"/>
<path fill-rule="evenodd" clip-rule="evenodd" d="M674.286 245.714C669.431 245.257 664.669 245.731 660 247.143C665.364 250.528 671.078 253.386 677.143 255.714C688.572 268.094 700 280.477 711.429 292.857C721.294 299.257 731.77 303.065 742.857 304.285C725.715 290.951 710.477 275.714 697.143 258.571C689.717 253.443 682.098 249.157 674.286 245.714Z" fill="#14CDC8"/>
<path fill-rule="evenodd" clip-rule="evenodd" d="M362.858 260C370.935 278.994 377.604 298.517 382.858 318.571C373.146 346.368 356.004 368.271 331.429 384.286C308.538 385.711 285.681 385.237 262.858 382.857C285.912 395.286 310.672 401.477 337.144 401.428C364.998 378.011 384.998 349.44 397.144 315.714C390.949 293.831 379.521 275.26 362.858 260Z" fill="#14CDC8"/>
<path fill-rule="evenodd" clip-rule="evenodd" d="M677.143 314.286C675.591 314.457 674.639 315.409 674.286 317.143C678.973 331.723 687.544 343.626 700 352.857C719.449 360.72 738.496 368.34 757.143 375.714C753.457 369.166 748.695 363.451 742.857 358.571C727.281 348.928 711.09 340.357 694.285 332.857C687.983 327.037 682.269 320.848 677.143 314.286Z" fill="#14CDC8"/>
<path fill-rule="evenodd" clip-rule="evenodd" d="M640 357.143C634.208 356.68 628.494 357.157 622.858 358.571C652.659 367.394 675.992 385.014 692.858 411.428C703.295 441.677 712.819 472.154 721.429 502.857C749.524 538.091 752.381 536.185 730 497.143C724.738 475.508 720.929 453.603 718.572 431.428C706.473 391.223 680.283 366.46 640 357.143Z" fill="#14CDC8"/>
<path fill-rule="evenodd" clip-rule="evenodd" d="M114.286 388.571C111.429 388.571 108.572 388.571 105.715 388.571C106.901 394.991 108.806 401.183 111.429 407.143C109.595 417.886 105.784 427.886 100.001 437.143C108.875 448.531 117.446 448.057 125.715 435.714C132.104 417.24 128.295 401.526 114.286 388.571Z" fill="black"/>
<path fill-rule="evenodd" clip-rule="evenodd" d="M757.143 411.428C754.639 411.054 752.734 412.006 751.429 414.286C751.713 426.645 755.999 437.123 764.286 445.714C766.191 439.048 766.191 432.38 764.286 425.714C761.159 421.206 758.778 416.443 757.143 411.428Z" fill="#14CDC8"/>
<path fill-rule="evenodd" clip-rule="evenodd" d="M120.001 405.714C118.287 416.811 114.478 427.288 108.572 437.142C113.972 437.722 118.258 435.82 121.43 431.428C123.241 422.7 122.767 414.128 120.001 405.714Z" fill="#14CDC8"/>
<path fill-rule="evenodd" clip-rule="evenodd" d="M371.429 534.285C368.469 592.137 364.184 650.234 358.572 708.571C376.218 665.494 383.838 620.731 381.429 574.285C379.864 560.405 376.532 547.071 371.429 534.285Z" fill="#14CDC8"/>
</svg>
