<svg width="1346" height="533" viewBox="0 0 1346 533" fill="none" xmlns="http://www.w3.org/2000/svg">
<path d="M474.6 107.109C489.119 107.109 503.639 107.109 518.599 107.109C530.894 123.061 530.894 123.061 535.212 128.795C537.674 132.064 540.178 135.297 542.711 138.512C544.45 140.722 546.16 142.952 547.849 145.201C549.366 147.217 550.91 149.212 552.448 151.211C554.885 154.377 557.304 157.555 559.706 160.746C562.136 163.973 564.609 167.164 567.109 170.337C569.012 172.755 570.877 175.197 572.725 177.655C574.596 180.141 576.49 182.61 578.389 185.076C580.797 188.204 583.187 191.344 585.561 194.498C588.023 197.767 590.527 201 593.06 204.215C594.8 206.426 596.51 208.655 598.198 210.904C599.715 212.92 601.259 214.915 602.798 216.915C605.575 220.525 608.333 224.149 611.071 227.789C612.878 230.188 614.721 232.55 616.576 234.915C616.726 192.739 616.875 150.563 617.029 107.109C632.447 107.109 647.865 107.109 663.75 107.109C663.75 176.611 663.75 246.112 663.75 317.719C650.278 317.719 636.806 317.719 622.926 317.719C615.955 308.827 615.955 308.827 612.582 304.337C610.905 302.111 609.204 299.902 607.504 297.693C605.347 294.89 603.197 292.081 601.068 289.256C598.518 285.871 595.931 282.515 593.34 279.16C589.146 273.726 584.975 268.276 580.842 262.797C578.968 260.315 577.075 257.849 575.164 255.395C570.852 249.852 566.598 244.266 562.374 238.656C560.502 236.177 558.598 233.726 556.673 231.287C554.24 228.206 551.887 225.075 549.559 221.915C547.471 219.092 545.32 216.323 543.144 213.567C541.198 211.1 539.293 208.605 537.405 206.095C535.799 203.962 534.178 201.842 532.547 199.729C532.309 199.422 532.072 199.114 531.827 198.797C531.324 198.145 530.821 197.494 530.318 196.842C528.716 194.768 527.115 192.693 525.516 190.616C525.197 190.203 524.877 189.79 524.548 189.364C524.105 188.787 524.105 188.787 523.652 188.199C523.256 187.686 523.256 187.686 522.852 187.161C522.227 186.313 522.227 186.313 521.774 185.413C521.624 229.074 521.474 272.735 521.32 317.719C505.902 317.719 490.485 317.719 474.6 317.719C474.6 248.218 474.6 178.717 474.6 107.109Z" fill="#2C2E8F"/>
<path d="M18.2754 0C134.583 0 250.89 0 370.721 0C370.74 41.4706 370.759 82.9412 370.778 125.669C370.786 138.758 370.794 151.847 370.803 165.332C370.807 181.329 370.807 181.329 370.808 188.821C370.809 194.391 370.813 199.961 370.818 205.531C370.823 211.222 370.825 216.913 370.824 222.605C370.824 225.689 370.824 228.772 370.829 231.856C370.866 255.687 370.866 255.687 369.814 265.513C369.778 265.857 369.742 266.202 369.705 266.557C369.515 268.325 369.289 270.083 369.02 271.841C368.943 272.355 368.866 272.869 368.787 273.398C365.78 292.629 359.571 310.713 350.763 328.066C350.589 328.414 350.415 328.762 350.236 329.12C346.025 337.521 340.919 345.543 335.07 352.914C334.434 353.716 333.806 354.524 333.179 355.334C329.335 360.277 325.351 365.107 320.832 369.461C319.939 370.348 319.119 371.267 318.302 372.224C317.031 373.69 315.677 374.944 314.192 376.193C312.545 377.607 310.96 379.086 309.369 380.56C308.656 381.218 307.938 381.869 307.217 382.518C306.974 382.743 306.73 382.968 306.479 383.2C305.761 383.837 305.761 383.837 304.496 384.768C302.996 384.272 302.816 384.049 301.951 382.819C301.725 382.501 301.498 382.184 301.265 381.857C301.021 381.509 300.778 381.161 300.527 380.803C299.996 380.058 299.463 379.314 298.93 378.57C298.653 378.182 298.375 377.794 298.089 377.395C296.711 375.489 295.289 373.618 293.865 371.746C290.785 367.69 287.742 363.608 284.713 359.514C284.261 358.906 283.796 358.307 283.323 357.715C282.723 356.867 282.723 356.867 282.725 355.971C283.369 354.682 284.266 354.078 285.416 353.211C288.048 351.153 290.372 348.899 292.702 346.517C293.84 345.381 294.983 344.254 296.14 343.138C311.395 328.313 322.434 308.463 328.99 288.464C329.21 287.793 329.21 287.793 329.435 287.109C331.053 282.09 332.382 277.039 333.413 271.869C333.497 271.451 333.582 271.033 333.669 270.602C333.897 269.385 334.096 268.166 334.283 266.943C334.385 266.275 334.491 265.608 334.599 264.941C336.194 254.826 335.997 244.66 335.99 234.452C335.99 231.782 335.998 229.112 336.004 226.442C336.015 221.829 336.02 217.217 336.022 212.604C336.024 207.773 336.029 202.942 336.038 198.111C336.038 197.658 336.038 197.658 336.039 197.196C336.042 195.663 336.045 194.13 336.048 192.597C336.067 181.774 336.081 170.952 336.091 160.129C336.1 149.622 336.113 139.116 336.129 128.61C336.129 128.285 336.13 127.961 336.13 127.626C336.135 124.367 336.14 121.107 336.145 117.847C336.156 111.209 336.166 104.57 336.176 97.9311C336.176 97.626 336.177 97.3208 336.177 97.0064C336.207 76.6715 336.228 56.3366 336.248 36.0017C335.995 36.0025 335.743 36.0033 335.482 36.0041C307.989 36.0879 280.495 36.1657 253.002 36.2113C252.591 36.212 252.18 36.2127 251.757 36.2134C242.834 36.2282 233.911 36.2419 224.988 36.2545C220.612 36.2607 216.236 36.2671 211.86 36.2737C211.207 36.2746 211.207 36.2746 210.54 36.2756C196.423 36.2967 182.305 36.3339 168.187 36.3794C153.681 36.4261 139.175 36.4566 124.669 36.4666C122.62 36.4681 120.572 36.4697 118.524 36.4714C118.121 36.4717 117.717 36.4721 117.302 36.4724C110.809 36.4783 104.317 36.5012 97.8238 36.5306C91.2983 36.5597 84.7731 36.5708 78.2476 36.5636C74.3692 36.5598 70.4914 36.5699 66.6131 36.5997C64.0227 36.6183 61.4327 36.6188 58.8423 36.6048C57.3657 36.5973 55.8905 36.6004 54.414 36.6199C45.1826 36.7349 45.1826 36.7349 43.0095 34.9147C41.959 33.6653 41.2215 32.507 40.5017 31.0515C40.1236 30.5231 39.736 30.0012 39.334 29.4905C39.0177 29.0403 38.7014 28.5902 38.3755 28.1263C36.5828 25.5997 34.7544 23.1019 32.9039 20.6166C32.6361 20.2568 32.3683 19.897 32.0924 19.5263C31.5432 18.7887 30.9938 18.0512 30.4444 17.3137C28.8154 15.1269 27.1892 12.938 25.5651 10.7476C24.3009 9.04274 23.0334 7.34056 21.7571 5.64461C21.523 5.33207 21.289 5.01954 21.0478 4.69754C20.609 4.11176 20.1686 3.52718 19.7262 2.94404C18.2754 1.00151 18.2754 1.00151 18.2754 0Z" fill="#2C2E8F"/>
<path d="M1174.96 107.109C1227.8 107.109 1280.64 107.109 1335.08 107.109C1335.08 120.772 1335.08 134.435 1335.08 148.511C1297.51 148.511 1259.94 148.511 1221.23 148.511C1221.23 162.471 1221.23 176.431 1221.23 190.813C1254.31 190.813 1287.39 190.813 1321.48 190.813C1321.48 204.625 1321.48 218.436 1321.48 232.665C1288.39 232.665 1255.31 232.665 1221.23 232.665C1221.23 247.071 1221.23 261.476 1221.23 276.317C1258.8 276.317 1296.37 276.317 1335.08 276.317C1335.08 289.98 1335.08 303.643 1335.08 317.719C1282.24 317.719 1229.4 317.719 1174.96 317.719C1174.96 248.218 1174.96 178.717 1174.96 107.109Z" fill="#2C2E8F"/>
<path d="M10.1087 43.2021C11.3922 44.4654 12.6324 45.6965 13.7287 47.124C13.964 47.4294 14.1993 47.7347 14.4417 48.0493C14.6865 48.3711 14.9312 48.6928 15.1834 49.0243C15.443 49.3634 15.7027 49.7026 15.9702 50.052C17.7035 52.3262 19.3944 54.6268 21.0535 56.9546C23.4317 60.2884 25.8897 63.5642 28.3368 66.8483C29.6715 68.6403 31.0031 70.4345 32.3351 72.2285C32.8595 72.9346 33.384 73.6407 33.9085 74.3468C35.0145 75.836 36.1201 77.3256 37.2254 78.8154C37.5078 79.1959 37.7902 79.5765 38.0812 79.9686C38.6165 80.6898 39.1516 81.4111 39.6865 82.1325C39.9315 82.4626 40.1765 82.7927 40.4289 83.1328C40.6403 83.4177 40.8517 83.7027 41.0695 83.9962C41.7972 85.023 41.7972 85.023 42.5214 85.7109C45.1665 88.5913 44.9609 91.5954 44.9176 95.3127C44.9196 95.9925 44.9229 96.6722 44.9273 97.3519C44.9359 99.2146 44.9276 101.077 44.9165 102.94C44.9075 104.951 44.9143 106.962 44.9192 108.974C44.9256 112.459 44.9222 115.945 44.9124 119.431C44.8982 124.483 44.9004 129.535 44.9067 134.588C44.9167 142.802 44.9156 151.016 44.9066 159.231C44.9058 159.968 44.9058 159.968 44.9049 160.72C44.9044 161.212 44.9039 161.704 44.9033 162.211C44.8957 169.167 44.8907 176.124 44.8888 183.08C44.8887 183.568 44.8886 184.057 44.8885 184.56C44.8865 192.734 44.8901 200.908 44.8964 209.083C44.9 214.115 44.898 219.147 44.8886 224.179C44.8824 227.637 44.8808 231.094 44.8828 234.552C44.8838 236.54 44.8825 238.529 44.8751 240.517C44.8362 251.451 45.265 262.178 47.6156 272.91C47.7316 273.448 47.8476 273.985 47.967 274.539C53.4709 299.282 65.2467 322.667 82.8103 341.159C83.8243 342.233 84.808 343.32 85.7746 344.435C88.3059 347.329 91.0938 349.879 94.0244 352.367C94.4384 352.728 94.8524 353.089 95.2789 353.46C124.089 378.374 162.692 390.602 200.677 388.031C218.068 386.691 235.042 382.655 250.844 375.242C252.545 374.446 254.072 373.758 255.959 373.518C258.374 376.354 260.638 379.245 262.792 382.277C264.223 384.287 265.692 386.264 267.186 388.228C267.64 388.828 268.095 389.428 268.55 390.028C268.785 390.339 269.02 390.649 269.263 390.969C269.513 391.299 269.763 391.629 270.021 391.969C270.3 392.337 270.579 392.706 270.867 393.085C271.74 394.239 272.61 395.396 273.479 396.553C273.753 396.914 274.027 397.275 274.31 397.647C274.565 397.989 274.821 398.33 275.085 398.682C275.311 398.983 275.538 399.283 275.771 399.593C276.431 400.613 276.859 401.634 277.278 402.769C251.7 418.158 220.388 424.942 190.698 424.905C190.047 424.904 190.047 424.904 189.384 424.904C182.807 424.89 176.306 424.762 169.775 423.92C169.219 423.85 168.662 423.78 168.088 423.708C133.184 419.226 99.7174 405.19 73.1589 382.068C72.8373 381.794 72.5157 381.52 72.1844 381.237C65.9678 375.913 59.8435 370.321 54.5614 364.068C54.2123 363.671 53.8632 363.275 53.5036 362.867C45.3532 353.572 38.38 343.316 32.3351 332.566C32.0205 332.007 32.0205 332.007 31.6996 331.438C19.7303 309.96 12.3929 285.483 10.5623 261.013C10.5063 260.286 10.5063 260.286 10.4491 259.544C10.1062 254.675 10.0459 249.831 10.0542 244.951C10.054 244.076 10.0536 243.201 10.053 242.326C10.052 239.941 10.0538 237.556 10.0561 235.171C10.0581 232.592 10.0574 230.013 10.057 227.433C10.0568 222.971 10.0582 218.509 10.0608 214.047C10.0645 207.595 10.0657 201.144 10.0662 194.692C10.0672 184.224 10.0702 173.755 10.0745 163.287C10.0787 153.121 10.0819 142.955 10.0838 132.789C10.0839 132.475 10.0839 132.162 10.084 131.838C10.0846 128.688 10.0852 125.537 10.0857 122.386C10.0905 95.9916 10.0985 69.5969 10.1087 43.2021Z" fill="#2C2E8F"/>
<path d="M96.3203 107.1C101.955 106.922 107.588 106.787 113.225 106.704C115.843 106.664 118.459 106.61 121.076 106.523C123.606 106.439 126.133 106.394 128.664 106.374C129.626 106.36 130.587 106.333 131.547 106.291C138.864 105.988 138.864 105.988 141.297 107.847C143.062 109.654 144.405 111.675 145.673 113.845C146.396 115.05 147.244 116.137 148.124 117.233C148.67 117.943 149.215 118.653 149.76 119.363C150.377 120.167 150.994 120.971 151.611 121.775C151.919 122.176 152.227 122.577 152.545 122.991C153.762 124.577 154.98 126.163 156.198 127.749C156.802 128.534 157.405 129.32 158.008 130.106C159.525 132.081 161.043 134.056 162.562 136.03C165.541 139.902 168.508 143.783 171.448 147.686C173.877 150.912 176.348 154.101 178.848 157.273C180.784 159.734 182.682 162.221 184.564 164.722C186.656 167.502 188.781 170.258 190.908 173.012C192.618 175.227 194.323 177.446 196.027 179.666C196.331 180.063 196.636 180.459 196.95 180.868C197.57 181.676 198.191 182.485 198.812 183.293C200.029 184.88 201.247 186.466 202.465 188.052C203.069 188.837 203.672 189.623 204.275 190.409C205.792 192.384 207.31 194.359 208.829 196.333C211.808 200.205 214.775 204.086 217.715 207.989C220.144 211.215 222.615 214.404 225.115 217.576C226.821 219.744 228.501 221.93 230.16 224.134C232.996 227.895 235.874 231.625 238.75 235.356C238.9 193.032 239.05 150.707 239.204 107.1C254.472 107.1 269.74 107.1 285.471 107.1C285.471 176.75 285.471 246.4 285.471 318.16C282.926 318.16 280.381 318.16 277.76 318.16C275.6 318.219 275.6 318.219 273.441 318.288C271.436 318.35 269.43 318.37 267.424 318.388C266.373 318.405 265.322 318.435 264.271 318.479C255.764 318.82 255.764 318.82 253.143 316.992C251.332 315.216 250.031 313.175 248.798 310.977C248.147 309.833 247.379 308.81 246.566 307.774C246.105 307.149 245.645 306.523 245.186 305.897C242.888 302.784 240.548 299.706 238.183 296.643C236.031 293.855 233.917 291.052 231.883 288.178C230.178 285.788 228.384 283.469 226.588 281.146C224.322 278.214 222.091 275.264 219.926 272.258C217.795 269.301 215.605 266.396 213.377 263.511C209.718 258.772 206.149 253.972 202.594 249.157C199.223 244.592 195.806 240.067 192.338 235.574C190.502 233.19 188.715 230.781 186.976 228.325C185.272 225.935 183.477 223.616 181.682 221.293C179.416 218.361 177.185 215.411 175.02 212.405C172.889 209.448 170.699 206.543 168.471 203.658C164.812 198.919 161.242 194.12 157.688 189.304C154.317 184.739 150.9 180.214 147.432 175.721C145.596 173.337 143.809 170.928 142.07 168.472C140.366 166.082 138.571 163.763 136.776 161.44C134.509 158.508 132.279 155.558 130.113 152.552C127.982 149.596 125.792 146.69 123.565 143.805C119.906 139.066 116.336 134.267 112.782 129.451C109.695 125.271 106.58 121.117 103.408 117C96.3203 107.802 96.3203 107.802 96.3203 107.1Z" fill="#2C2E8F"/>
<path d="M970.84 107.109C1028.92 107.109 1087 107.109 1146.84 107.109C1146.84 121.366 1146.84 135.623 1146.84 150.311C1125.58 150.311 1104.32 150.311 1082.43 150.311C1082.43 205.556 1082.43 260.801 1082.43 317.719C1066.86 317.719 1051.29 317.719 1035.25 317.719C1035.25 262.475 1035.25 207.23 1035.25 150.311C1014 150.311 992.74 150.311 970.84 150.311C970.84 136.055 970.84 121.798 970.84 107.109Z" fill="#2C2E8F"/>
<path d="M766.716 107.109C824.795 107.109 882.873 107.109 942.712 107.109C942.712 121.366 942.712 135.623 942.712 150.311C921.456 150.311 900.201 150.311 878.301 150.311C878.301 205.556 878.301 260.801 878.301 317.719C862.733 317.719 847.166 317.719 831.127 317.719C831.127 262.475 831.127 207.23 831.127 150.311C809.871 150.311 788.616 150.311 766.716 150.311C766.716 136.055 766.716 121.798 766.716 107.109Z" fill="#2C2E8F"/>
<path d="M691.447 107.109C707.015 107.109 722.582 107.109 738.621 107.109C738.621 176.611 738.621 246.112 738.621 317.719C723.054 317.719 707.486 317.719 691.447 317.719C691.447 248.218 691.447 178.717 691.447 107.109Z" fill="#2C2E8F"/>
<path d="M96.3203 159.754C96.6197 159.754 96.9191 159.754 97.2275 159.754C97.7638 160.355 97.7638 160.355 98.3668 161.209C98.7088 161.688 98.7088 161.688 99.0577 162.176C99.4288 162.704 99.4288 162.704 99.8073 163.242C100.343 163.99 100.879 164.739 101.416 165.486C101.697 165.877 101.977 166.268 102.266 166.671C103.648 168.577 105.072 170.452 106.498 172.326C109.79 176.663 113.039 181.03 116.279 185.405C119.287 189.467 122.297 193.527 125.351 197.556C128.125 201.215 130.862 204.902 133.596 208.592C134.449 209.742 135.303 210.891 136.157 212.039C136.441 212.421 136.725 212.803 137.018 213.196C137.558 213.922 138.098 214.648 138.639 215.374C139.008 215.872 139.008 215.872 139.386 216.379C139.599 216.667 139.813 216.954 140.033 217.25C140.277 217.582 140.521 217.914 140.773 218.257C140.957 218.47 141.142 218.682 141.332 218.902C143.105 221.072 143.363 222.715 143.314 225.459C143.316 225.857 143.318 226.254 143.32 226.664C143.323 227.992 143.311 229.319 143.298 230.646C143.298 231.6 143.298 232.554 143.299 233.507C143.3 236.093 143.287 238.678 143.271 241.264C143.257 243.967 143.255 246.67 143.253 249.374C143.246 254.491 143.227 259.609 143.204 264.727C143.174 271.643 143.162 278.56 143.149 285.476C143.127 296.371 143.082 307.266 143.041 318.161C127.623 318.161 112.205 318.161 96.3203 318.161C96.3203 265.887 96.3203 213.612 96.3203 159.754Z" fill="#2C2E8F"/>
<path d="M718.189 479.272C719.733 480.254 720.749 481.142 721.364 482.873C721.841 485.797 721.229 488.112 719.55 490.523C715.653 495.444 710.729 498.865 705.488 502.223C705.531 503.059 705.531 503.059 705.573 503.911C705.589 504.224 705.605 504.538 705.621 504.86C706.108 506.323 706.914 506.818 708.21 507.624C712.971 508.554 717.477 506.981 721.456 504.449C723.988 502.625 726.215 500.684 728.252 498.324C729.076 497.723 729.076 497.723 730.311 497.853C730.651 497.959 730.992 498.064 731.344 498.173C731.344 501.791 729.732 503.72 727.261 506.274C722.327 511.038 716.025 514.053 709.153 514.067C705.73 514.004 703.923 513.245 701.519 510.914C700.655 509.786 700.094 508.603 699.528 507.306C699.369 506.943 699.209 506.581 699.045 506.207C698.926 505.932 698.807 505.657 698.684 505.374C698.228 505.684 697.771 505.994 697.301 506.314C688.769 512.01 680.191 516.664 669.654 515.724C666.62 514.912 664.56 512.868 662.85 510.324C662.786 509.153 662.765 508.033 662.793 506.864C662.798 506.548 662.802 506.233 662.806 505.907C662.817 505.129 662.833 504.351 662.85 503.574C662.581 503.835 662.311 504.096 662.033 504.365C657.664 508.45 653.551 510.972 647.428 511.224C644.525 511.071 642.563 509.659 640.624 507.624C640.161 507.031 639.705 506.432 639.263 505.824C638.802 506.305 638.802 506.305 638.331 506.796C634.135 511.107 629.395 515.593 623.075 516.033C621.271 515.958 620.306 515.709 619.05 514.402C617.014 511.489 616.816 508.37 617.238 504.927C617.5 503.52 617.913 502.277 618.422 500.94C618.587 500.504 618.752 500.067 618.922 499.617C619.111 499.125 619.111 499.125 619.305 498.623C619.055 498.767 618.806 498.912 618.549 499.06C612.623 502.47 606.632 505.653 600.478 508.632C597.988 509.843 595.569 511.061 593.261 512.591C591.14 513.87 588.582 513.789 586.192 513.474C584.945 512.49 584.945 512.49 584.378 511.224C584.378 510.043 584.378 510.043 584.831 508.974C586.657 507.241 589.148 506.734 591.505 506.015C593.739 505.286 595.064 504.495 596.625 502.673C596.868 502.398 597.111 502.124 597.362 501.84C600.021 498.437 601.885 494.988 601.827 490.609C601.552 489.334 601.22 488.714 600.254 487.823C597.54 487.418 595.985 488.535 593.813 489.999C589.79 493.083 587.289 497.099 584.836 501.427C584.427 502.138 583.997 502.837 583.564 503.535C580.269 509.008 580.091 514.972 579.721 521.189C579.2 529.64 579.2 529.64 577.866 531.374C576.586 532.319 575.475 532.111 573.945 531.925C572.921 531.276 572.921 531.276 572.131 530.125C571.997 528.696 572.2 527.324 572.386 525.906C572.433 525.478 572.48 525.05 572.529 524.609C572.634 523.662 572.743 522.716 572.855 521.771C573.186 518.97 573.483 516.166 573.775 513.361C573.835 512.787 573.895 512.213 573.957 511.622C574.392 507.273 574.56 502.99 574.399 498.623C574.141 498.912 573.883 499.2 573.617 499.497C570.998 502.407 568.385 505.239 565.383 507.764C562.89 509.899 560.717 512.354 558.641 514.886C556.344 517.654 553.547 520.705 549.867 521.381C548.614 521.404 547.5 521.386 546.275 521.124C545.368 520.224 545.368 520.224 545.283 518.79C546.301 515.548 549.448 514.167 552.286 512.546C554.807 511.075 556.232 509.799 557.275 507.005C557.103 504.528 555.815 503.375 553.987 501.773C552.852 500.95 551.693 500.172 550.528 499.391C548.308 497.808 546.708 496.25 546.247 493.504C546.067 489.279 548.217 486.058 550.811 482.873C552.196 481.431 552.731 481.12 554.724 480.847C556.255 481.072 556.255 481.072 557.162 481.832C557.743 483.164 557.571 483.742 557.162 485.123C556.503 486.035 556.503 486.035 555.688 486.895C555.262 487.353 555.262 487.353 554.828 487.821C554.551 488.119 554.273 488.416 553.987 488.723C553.22 489.615 552.47 490.519 551.719 491.423C552.666 493.15 553.692 494.346 555.177 495.642C555.576 495.989 555.974 496.337 556.384 496.695C557.859 497.927 559.372 499.097 560.92 500.239C561.698 500.873 561.698 500.873 562.151 501.773C564.609 501.631 565.861 500.209 567.538 498.595C567.959 498.197 567.959 498.197 568.389 497.792C572.032 494.319 574.694 491.098 576.667 486.473C577.12 486.023 577.12 486.023 578.651 485.91C580.295 486.023 580.295 486.023 581.07 486.554C583.004 489.255 581.463 494.505 580.947 497.533C580.882 497.893 580.816 498.253 580.749 498.623C581.177 497.914 581.177 497.914 581.614 497.191C585.448 490.914 590.07 484.25 597.532 481.972C599.995 481.401 601.972 481.38 604.336 482.422C606.578 484.366 607.776 486.426 608.078 489.384C608.302 494.321 606.282 497.867 603.429 501.773C608.934 499.094 614.054 496.064 619.1 492.603C621.498 490.97 623.859 489.53 626.505 488.325C627.498 487.808 628.236 487.226 629.057 486.473C632.171 483.725 635.041 482.667 639.178 482.591C639.674 482.576 639.674 482.576 640.181 482.56C641.954 482.585 642.8 482.801 644.201 483.903C646.106 486.327 646.139 487.604 645.807 490.616C645.645 491.666 645.43 492.629 645.132 493.645C644.331 496.59 644.034 500.019 645.557 502.758C646.507 504.006 646.791 504.359 648.285 504.628C653.925 504.999 658.556 501.441 662.601 497.938C665.057 495.692 667.007 493.148 668.972 490.481C670.744 488.097 672.516 486.213 675.097 484.673C675.393 484.481 675.689 484.29 675.994 484.092C678.273 482.769 680.662 482.225 683.262 482.873C685.511 484.516 686.628 486.837 687.118 489.51C686.777 491.709 685.579 493.321 684.169 495.023C682.611 496.054 681.908 496.003 680.087 495.923C680.315 493.657 680.884 492.092 681.901 490.073C682.016 488.835 682.016 488.835 681.901 487.823C678.511 488.204 676.44 489.331 674.19 491.873C671.001 496.095 668.563 500.896 668.614 506.274C668.835 507.769 669.609 508.734 670.561 509.874C673.903 511.531 678.47 510.221 681.829 509.123C685.022 508.004 688.031 506.571 690.992 504.947C691.877 504.475 692.776 504.051 693.684 503.626C696.68 502.135 696.68 502.135 698.634 499.539C699.154 497.826 699.43 496.092 699.7 494.325C700.583 488.563 704.563 484.05 709.117 480.622C711.927 478.996 714.985 478.761 718.189 479.272ZM710.024 486.023C706.93 488.828 705.278 492.767 704.581 496.823C706.803 495.808 708.583 494.285 710.478 492.773C710.777 492.543 711.077 492.314 711.385 492.077C713.295 490.558 714.482 489.164 715.468 486.923C715.416 485.645 715.416 485.645 715.014 484.673C712.756 483.882 711.819 484.569 710.024 486.023ZM632.844 489.405C631.914 490.191 631.047 491.008 630.191 491.873C629.954 492.109 629.716 492.345 629.472 492.588C625.911 496.411 622.573 502.008 622.457 507.327C622.62 508.729 622.62 508.729 623.387 509.874C627.95 509.802 631.498 507.606 634.727 504.474C638.481 499.972 640.36 495 640.17 489.173C639.946 488.505 639.946 488.505 639.717 487.823C637.334 486.836 634.83 488.017 632.844 489.405Z" fill="#2C2E8F"/>
<path d="M287.963 462.401C289.551 462.626 289.551 462.626 290.333 463.609C292.208 467.713 289.83 474.256 288.95 478.514C288.528 480.567 288.12 482.622 287.712 484.677C287.633 485.075 287.554 485.473 287.473 485.883C286.121 492.73 285.22 499.294 285.469 506.278C287.877 503.201 290.12 500.058 292.273 496.8C299.78 485.534 299.78 485.534 304.674 484.44C305.654 484.396 305.654 484.396 307.241 484.677C308.923 487.181 308.349 490.793 307.922 493.706C307.453 497.373 307.182 500.739 309.056 504.028C310.196 505.16 310.621 505.075 312.203 505.097C315.071 505.041 317.338 504.26 319.942 503.128C320.329 503.007 320.716 502.886 321.115 502.761C322.389 502.272 323.104 501.889 324.025 500.878C324.566 499.103 324.835 497.374 325.088 495.541C325.896 489.86 329.476 483.755 334.004 480.177C336.264 478.601 338.377 478.06 341.139 478.17C343.305 478.606 344.193 480.264 345.344 481.977C345.831 486.399 345.457 489.489 342.675 492.936C339.183 496.947 335.194 500.526 330.829 503.578C330.949 505.888 330.949 505.888 332.251 507.72C334.895 509.366 338.235 508.848 341.201 508.279C347.137 506.444 352.035 501.739 356.407 497.527C357.158 496.808 357.92 496.102 358.684 495.395C359.18 494.927 359.676 494.457 360.171 493.987C360.4 493.777 360.629 493.567 360.865 493.35C362.481 491.784 362.926 490.409 363.488 488.278C365.175 487.161 366.027 487.169 368.024 487.378C369.229 488.293 369.775 488.81 370.031 490.313C370.014 490.737 369.997 491.16 369.98 491.597C369.956 492.301 369.956 492.301 369.932 493.02C369.774 495.642 369.603 498.261 369.384 500.878C369.664 500.47 369.945 500.063 370.233 499.642C373.766 494.566 377.265 489.802 383.446 487.828C385.836 487.511 388.263 487.197 390.404 488.448C391.157 489.178 391.157 489.178 391.412 490.303C391.157 491.428 391.157 491.428 390.195 492.112C388.783 492.832 387.399 493.292 385.884 493.762C379.597 495.954 375.367 500.016 372.446 505.913C371.258 508.616 370.476 511.338 369.774 514.194C368.773 518.135 368.773 518.135 367.57 519.329C365.926 519.385 365.926 519.385 364.395 519.329C362.843 516.875 362.854 514.833 362.901 512.034C362.903 511.598 362.905 511.162 362.907 510.714C362.915 509.329 362.932 507.944 362.949 506.56C362.956 505.618 362.962 504.676 362.968 503.735C362.983 501.432 363.006 499.13 363.034 496.828C361.517 498.322 360.075 499.844 358.668 501.441C356.389 503.937 353.943 506.046 351.24 508.079C350.867 508.361 350.493 508.644 350.108 508.935C345.737 512.106 341.426 514.454 335.96 514.519C335.431 514.539 335.431 514.539 334.891 514.559C331.813 514.592 329.459 513.813 327.173 511.726C326.967 511.441 326.76 511.157 326.548 510.863C326.333 510.582 326.119 510.3 325.897 510.01C325.219 508.643 325.091 507.335 324.932 505.828C324.372 506.187 324.372 506.187 323.801 506.553C318.607 509.838 314.067 512.184 307.695 511.229C305.18 509.805 303.568 508.427 302.659 505.653C302.053 503.108 302.154 500.553 302.195 497.953C302.199 497.454 302.203 496.955 302.208 496.441C302.218 495.22 302.233 493.999 302.252 492.778C301.803 492.778 301.354 492.778 300.891 492.778C297.043 496.748 294.369 501.793 291.58 506.508C290.549 508.237 289.488 509.946 288.417 511.651C288.237 511.94 288.057 512.23 287.871 512.528C285.21 516.757 285.21 516.757 283.654 517.529C282.434 517.613 281.252 517.568 280.026 517.529C278.292 515.81 278.982 510.2 278.971 507.88C279.036 501.896 280.022 495.982 280.933 490.078C281.063 489.233 281.063 489.233 281.195 488.371C281.409 486.99 281.624 485.608 281.84 484.227C281.597 484.377 281.353 484.527 281.103 484.681C274.652 488.578 267.007 489.774 259.614 490.528C259.244 492.487 258.876 494.447 258.508 496.406C258.404 496.959 258.299 497.512 258.192 498.082C258.091 498.62 257.99 499.158 257.886 499.713C257.793 500.205 257.701 500.698 257.605 501.205C257.203 503.487 256.843 505.722 256.828 508.042C256.819 508.429 256.811 508.817 256.802 509.217C256.786 510.019 256.778 510.822 256.777 511.625C256.693 514.549 256.693 514.549 255.377 515.998C253.961 516.738 253.028 516.775 251.449 516.629C248.318 511.841 250.684 505.1 251.676 499.894C251.829 499.071 251.982 498.248 252.135 497.425C252.506 495.425 252.883 493.426 253.263 491.428C252.7 491.445 252.7 491.445 252.126 491.463C250.426 491.51 248.727 491.54 247.026 491.568C246.436 491.587 245.845 491.606 245.237 491.626C244.669 491.633 244.102 491.64 243.518 491.647C242.995 491.659 242.473 491.671 241.934 491.683C240.562 491.428 240.562 491.428 239.472 490.363C238.748 489.178 238.748 489.178 238.72 487.996C239.389 486.513 239.973 486.252 241.47 485.577C242.961 485.373 244.445 485.347 245.949 485.324C249.963 485.354 249.963 485.354 253.717 484.227C256.11 480.641 256.297 475.724 256.922 471.584C257.01 471.043 257.099 470.502 257.19 469.945C257.264 469.457 257.338 468.97 257.414 468.467C257.864 466.902 258.469 466.034 259.614 464.876C261.003 464.595 261.003 464.595 262.335 464.876C263.372 466.148 263.696 466.876 263.694 468.522C263.611 469.046 263.527 469.569 263.441 470.108C263.397 470.394 263.353 470.68 263.307 470.974C262.839 473.873 262.215 476.746 261.574 479.611C261.497 479.958 261.419 480.305 261.339 480.662C261.269 480.971 261.199 481.279 261.127 481.596C260.934 482.508 260.934 482.508 260.974 483.777C263.932 483.857 266.614 483.61 269.508 483.018C269.903 482.938 270.299 482.859 270.707 482.776C273.835 482.111 276.701 481.142 279.572 479.727C279.869 479.581 280.166 479.435 280.472 479.284C280.84 479.1 280.84 479.1 281.216 478.912C282.294 478.377 282.294 478.377 283.201 478.377C283.218 478.129 283.235 477.882 283.252 477.627C283.496 474.565 283.873 471.521 284.278 468.477C284.33 468.057 284.381 467.638 284.434 467.205C284.489 466.808 284.544 466.411 284.6 466.002C284.671 465.466 284.671 465.466 284.743 464.919C285.28 463.06 286.077 462.669 287.963 462.401ZM334.84 486.244C332.274 489.722 330.452 493.844 330.375 498.178C334.327 495.425 338.078 492.4 339.9 487.828C340.064 486.339 340.116 485.554 339.447 484.227C337.266 483.768 336.244 484.744 334.84 486.244Z" fill="#2C2E8F"/>
<path d="M1217.6 479.721C1219.42 482.039 1219.72 484.004 1219.61 486.927C1218.74 492.801 1212.93 497.021 1208.52 500.422C1208.12 500.737 1207.71 501.052 1207.3 501.377C1206.35 502.113 1205.4 502.845 1204.44 503.573C1204.79 505.353 1205.12 506.475 1206.37 507.82C1209.18 509.378 1212.93 508.885 1215.92 508.157C1222.54 505.842 1227.91 501.462 1233.02 496.822C1233.64 496.258 1233.64 496.258 1234.28 495.683C1236.35 493.729 1238.07 491.693 1239.65 489.341C1242.55 485.049 1246.29 480.839 1251.62 479.721C1253.48 479.489 1255.2 479.377 1257.06 479.721C1257.94 480.434 1258.36 481.072 1258.89 482.063C1259.32 482.979 1259.32 482.979 1260.4 483.772C1261.14 484.672 1261.14 484.672 1261.08 486.134C1260.82 487.248 1260.53 488.355 1260.21 489.453C1259.05 493.962 1259.7 498.035 1261.59 502.223C1264.71 502.443 1266.22 501.205 1268.55 499.28C1272.19 496.113 1275.7 492.625 1278.65 488.822C1279.29 488.272 1279.29 488.272 1281.1 488.272C1281.09 487.506 1281.09 487.506 1281.07 486.725C1281.1 485.122 1281.1 485.122 1281.55 484.672C1282.88 484.544 1283.89 484.458 1285.18 484.672C1286.3 485.68 1286.51 486.467 1286.62 487.947C1286.64 491.213 1286.23 494.289 1285.64 497.497C1285.46 498.449 1285.29 499.4 1285.13 500.352C1285.01 500.973 1285.01 500.973 1284.89 501.606C1284.69 502.715 1284.69 502.715 1284.73 504.023C1286.57 501.57 1288.35 499.102 1290.03 496.537C1295.36 488.406 1295.36 488.406 1299.24 486.472C1300.29 486.261 1300.29 486.261 1301.31 486.247C1301.65 486.233 1301.99 486.219 1302.34 486.205C1303.86 486.616 1304.31 487.417 1305.14 488.722C1305.58 490.165 1305.58 490.165 1305.88 491.788C1305.96 492.222 1305.96 492.222 1306.04 492.664C1306.5 495.208 1306.83 497.769 1307.12 500.336C1307.26 501.637 1307.44 502.775 1307.86 504.023C1308.16 504.171 1308.46 504.32 1308.77 504.473C1308.88 504.171 1309 503.869 1309.12 503.559C1315.11 489.177 1315.11 489.177 1320.56 486.472C1322.11 486.257 1323.56 486.223 1325.1 486.472C1328.19 489.084 1328.85 492.943 1329.35 496.766C1329.82 499.939 1330.42 503.45 1332.81 505.823C1335.42 506.095 1336.98 505.82 1339.15 504.339C1341.05 502.756 1343.03 500.842 1344.15 498.622C1344.75 498.622 1345.35 498.622 1345.96 498.622C1345.69 503.681 1342.88 507.415 1339.16 510.773C1336.48 512.37 1334.06 512.667 1331 512.123C1327.87 510.532 1326.39 507.577 1325.1 504.473C1324.58 502.765 1324.2 501.044 1323.85 499.297C1323.67 498.421 1323.48 497.544 1323.29 496.668C1323.17 496.095 1323.17 496.095 1323.05 495.512C1322.86 494.553 1322.86 494.553 1322.38 493.672C1320.8 493.923 1320.19 494.352 1319.26 495.629C1317.63 497.911 1316.38 500.372 1315.12 502.869C1311.2 510.611 1311.2 510.611 1308.77 513.023C1306.24 513.352 1306.24 513.352 1305.14 513.023C1302.57 510.982 1302.45 508.592 1302.07 505.462C1302.01 504.851 1301.94 504.24 1301.88 503.629C1301.74 502.429 1301.6 501.231 1301.46 500.032C1301.4 499.474 1301.33 498.916 1301.27 498.342C1301.02 496.579 1300.65 494.929 1300.15 493.222C1294.78 496.029 1291.71 502.998 1288.8 508.011C1288.35 508.782 1287.9 509.552 1287.45 510.323C1287.25 510.676 1287.04 511.029 1286.83 511.392C1286.55 511.875 1286.55 511.875 1286.25 512.367C1286.09 512.648 1285.93 512.928 1285.76 513.217C1284.85 514.328 1283.84 514.763 1282.43 514.943C1279.84 514.923 1279.84 514.923 1278.83 513.923C1278.27 511.987 1278.29 510.016 1278.29 508.017C1278.29 507.668 1278.29 507.32 1278.29 506.961C1278.33 502.953 1278.79 498.996 1279.29 495.022C1278.95 495.425 1278.62 495.827 1278.27 496.242C1268.39 507.982 1268.39 507.982 1262.83 508.646C1260.82 508.726 1259.6 508.67 1257.8 507.707C1256.05 506.018 1255.47 503.58 1254.79 501.322C1253.19 502.514 1251.97 503.712 1250.77 505.288C1247.82 508.999 1244.35 513.056 1239.51 514.215C1237.34 514.353 1236.04 514.008 1234.35 512.629C1233.13 511.447 1232.59 510.775 1232.5 509.034C1232.51 508.522 1232.51 508.01 1232.51 507.482C1232.51 506.719 1232.51 506.719 1232.5 505.94C1232.56 504.643 1232.72 503.483 1233.02 502.223C1232.76 502.5 1232.5 502.778 1232.23 503.065C1226.58 508.926 1219.14 514.205 1210.76 514.804C1207.25 514.855 1204.3 514.297 1201.56 512.023C1198.5 508.762 1198.38 504.692 1198.45 500.447C1198.72 493.363 1201.33 486.969 1206.31 481.891C1209.39 479.105 1213.67 477.244 1217.6 479.721ZM1208.07 487.372C1206.12 490.519 1204.92 493.609 1204.44 497.272C1206.83 496.035 1208.61 494.684 1210.48 492.772C1210.72 492.538 1210.96 492.303 1211.2 492.062C1212.99 490.263 1213.92 489.171 1214.05 486.641C1214.07 485.181 1214.07 485.181 1213.51 484.222C1210.87 483.666 1209.54 485.462 1208.07 487.372ZM1247.89 487.338C1243.46 491.919 1237.97 499.338 1237.89 505.879C1237.95 506.742 1237.95 506.742 1238.01 507.623C1239.29 508.092 1239.86 508.274 1241.18 508.073C1242.9 506.932 1244.29 505.5 1245.72 504.023C1246.07 503.67 1246.43 503.318 1246.79 502.956C1251.42 498.133 1254.64 492.825 1255.28 486.166C1255.36 485.033 1255.36 485.033 1254.34 484.222C1251.79 484.222 1249.77 485.712 1247.89 487.338Z" fill="#2C2E8F"/>
<path d="M912.326 478.374C913.758 479.47 914.503 480.489 915.501 481.975C915.988 486.397 915.614 489.486 912.832 492.933C909.34 496.944 905.351 500.523 900.986 503.576C901.106 505.885 901.106 505.885 902.408 507.717C905.052 509.363 908.392 508.845 911.358 508.276C919.165 505.863 925.468 498.751 931.022 493.11C932.644 491.471 932.644 491.471 933.645 490.975C934.123 490.039 934.123 490.039 934.552 488.95C935.358 486.975 935.358 486.975 936.366 486.475C937.217 486.399 937.217 486.399 938.181 486.39C938.499 486.384 938.817 486.378 939.145 486.371C939.995 486.475 939.995 486.475 940.902 487.375C940.921 488.604 940.896 489.805 940.846 491.031C940.764 495.188 941.53 498.718 942.717 502.676C943.033 503.774 943.345 504.873 943.655 505.973C943.857 506.684 944.061 507.395 944.27 508.104C944.723 509.672 944.985 510.931 944.985 512.576C945.284 512.576 945.583 512.576 945.892 512.576C946.007 512.334 946.122 512.091 946.241 511.841C946.914 510.556 947.689 509.355 948.472 508.132C951.402 503.448 953.709 498.688 955.439 493.454C956.237 491.062 956.237 491.062 957.232 490.075C958.703 489.686 959.711 489.57 961.201 489.906C962.528 490.711 962.648 491.324 963.129 492.775C963.28 493.653 963.412 494.535 963.525 495.419C963.9 497.798 964.437 499.371 965.85 501.325C968.052 502.782 969.776 502.769 972.314 502.282C973.43 502.044 974.355 501.832 975.376 501.325C975.611 500.151 975.801 498.994 975.971 497.81C977.045 491.188 979.933 484.459 985.355 480.174C987.616 478.598 989.728 478.057 992.49 478.167C994.656 478.603 995.544 480.262 996.695 481.975C997.182 486.397 996.808 489.486 994.026 492.933C990.535 496.944 986.545 500.523 982.18 503.576C982.3 505.885 982.3 505.885 983.602 507.717C986.246 509.363 989.587 508.845 992.552 508.276C999.447 506.145 1005.08 500.251 1010.04 495.282C1010.41 494.907 1010.41 494.907 1010.79 494.524C1011.27 494.042 1011.74 493.558 1012.22 493.071C1012.77 492.506 1013.35 491.963 1013.93 491.425C1014.23 491.425 1014.53 491.425 1014.84 491.425C1014.86 491.099 1014.87 490.773 1014.89 490.437C1015.06 487.942 1015.22 485.91 1016.65 483.775C1018.32 482.671 1019.22 482.697 1021.19 482.875C1022.24 484.435 1022.11 485.088 1021.83 486.886C1021.64 487.825 1021.64 487.825 1021.19 489.231C1020.37 491.807 1020.42 494.599 1020.28 497.275C1020.57 496.943 1020.85 496.61 1021.15 496.268C1025.52 491.306 1031.1 485.536 1037.95 484.465C1040.09 484.349 1041.24 484.434 1043.05 485.631C1044.02 487.155 1044.21 487.858 1043.87 489.625C1043.12 490.601 1043.12 490.601 1042.05 491.425C1040.73 491.573 1040.73 491.573 1039.19 491.537C1033.74 491.785 1029.2 494.77 1025.34 498.46C1021.68 502.451 1020.13 505.481 1020.34 510.832C1020.36 511.24 1020.38 511.648 1020.4 512.068C1020.47 515.055 1020.47 515.055 1019.46 516.224C1018.18 516.743 1017.12 516.719 1015.75 516.626C1014.04 513.61 1013.87 510.828 1013.89 507.417C1013.89 506.959 1013.89 506.959 1013.89 506.492C1013.89 505.529 1013.9 504.566 1013.9 503.604C1013.91 502.946 1013.91 502.288 1013.91 501.63C1013.91 500.029 1013.92 498.427 1013.93 496.825C1013.43 497.388 1012.93 497.951 1012.44 498.515C1012.16 498.828 1011.88 499.142 1011.59 499.465C1010.81 500.365 1010.04 501.278 1009.28 502.197C1004.64 507.447 997.948 512.162 991.252 514.376C989.931 514.455 988.632 514.501 987.311 514.517C986.782 514.536 986.782 514.536 986.242 514.556C983.176 514.589 980.802 513.825 978.54 511.723C977.164 509.786 976.318 508.154 975.829 505.826C975.27 505.98 975.27 505.98 974.699 506.137C970.355 507.246 966.616 507.732 962.563 505.515C961.197 504.503 960.366 503.211 959.5 501.775C959.2 501.33 958.901 500.884 958.593 500.425C958.401 500.805 958.401 500.805 958.206 501.193C955.52 506.5 952.752 511.484 949.067 516.176C948.593 516.79 948.593 516.79 948.11 517.417C947.019 518.701 946.127 519.218 944.531 519.776C941.666 519.634 941.666 519.634 940.449 518.426C940.172 517.142 939.934 515.867 939.712 514.573C938.745 509.343 937.09 504.379 935.391 499.345C934.919 497.914 934.499 496.477 934.098 495.025C933.833 495.378 933.833 495.378 933.563 495.737C929.977 500.418 926.128 504.517 921.397 508.076C921.024 508.358 920.65 508.641 920.265 508.932C915.894 512.103 911.583 514.451 906.117 514.517C905.764 514.53 905.411 514.543 905.048 514.556C901.982 514.589 899.608 513.825 897.346 511.723C897.144 511.439 896.942 511.154 896.733 510.86C896.524 510.579 896.314 510.298 896.099 510.008C893.576 505.329 894.139 499.112 895.401 494.125C897.36 487.749 900.712 482.605 906.344 478.881C908.365 478.173 910.208 477.992 912.326 478.374ZM904.997 486.241C902.432 489.719 900.609 493.841 900.532 498.175C904.484 495.422 908.235 492.397 910.058 487.825C910.221 486.336 910.273 485.552 909.604 484.225C907.423 483.766 906.401 484.741 904.997 486.241ZM986.191 486.241C983.626 489.719 981.803 493.841 981.726 498.175C985.678 495.422 989.429 492.397 991.252 487.825C991.415 486.336 991.467 485.552 990.798 484.225C988.617 483.766 987.595 484.741 986.191 486.241Z" fill="#2C2E8F"/>
<path d="M81.8127 462.621C83.5045 464.748 83.2475 466.363 82.9782 468.937C82.5422 472.154 81.8687 475.332 81.2121 478.509C80.7893 480.562 80.3813 482.617 79.9735 484.672C79.8946 485.07 79.8156 485.468 79.7343 485.878C78.3825 492.725 77.4812 499.289 77.7304 506.273C80.1388 503.196 82.3816 500.053 84.5343 496.795C92.0413 485.529 92.0413 485.529 96.9356 484.435C97.9155 484.391 97.9155 484.391 99.5031 484.672C101.185 487.176 100.611 490.788 100.183 493.701C99.7142 497.368 99.4437 500.734 101.317 504.023C102.458 505.155 102.883 505.07 104.464 505.092C107.336 505.033 109.604 504.283 112.204 503.123C112.619 502.979 113.034 502.836 113.462 502.687C115.132 501.968 116.378 501.322 117.082 499.573C117.674 497.495 118.017 495.372 118.377 493.244C118.728 491.42 119.445 489.874 120.369 488.273C120.602 487.867 120.836 487.462 121.077 487.044C123.356 483.305 125.955 479.7 130.348 478.372C131.918 478.12 133.32 478.057 134.884 478.372C136.316 479.468 137.061 480.487 138.059 481.972C138.546 486.394 138.172 489.484 135.39 492.931C131.899 496.942 127.909 500.521 123.544 503.573C123.665 505.883 123.665 505.883 124.967 507.715C127.611 509.361 130.951 508.843 133.916 508.274C139.852 506.439 144.75 501.734 149.122 497.522C149.873 496.803 150.636 496.097 151.399 495.39C151.895 494.922 152.391 494.452 152.886 493.982C153.115 493.772 153.344 493.562 153.581 493.345C155.196 491.779 155.641 490.404 156.203 488.273C157.891 487.156 158.742 487.164 160.739 487.373C161.944 488.288 162.491 488.805 162.746 490.308C162.729 490.732 162.712 491.155 162.695 491.592C162.679 492.061 162.663 492.531 162.647 493.015C162.489 495.637 162.318 498.256 162.1 500.873C162.38 500.465 162.66 500.058 162.948 499.637C166.482 494.561 169.98 489.797 176.161 487.823C178.551 487.506 180.979 487.192 183.119 488.443C183.872 489.173 183.872 489.173 184.127 490.298C183.872 491.423 183.872 491.423 182.91 492.107C181.498 492.827 180.114 493.287 178.599 493.757C172.312 495.949 168.082 500.011 165.161 505.908C163.973 508.611 163.192 511.333 162.489 514.189C161.488 518.13 161.488 518.13 160.285 519.324C158.641 519.38 158.641 519.38 157.11 519.324C155.558 516.87 155.569 514.828 155.616 512.029C155.618 511.593 155.62 511.157 155.622 510.709C155.63 509.324 155.647 507.939 155.664 506.555C155.671 505.613 155.677 504.671 155.683 503.73C155.698 501.427 155.721 499.125 155.749 496.823C154.232 498.317 152.79 499.839 151.383 501.436C149.104 503.932 146.658 506.041 143.956 508.074C143.582 508.356 143.208 508.639 142.823 508.93C138.452 512.101 134.141 514.449 128.675 514.514C128.146 514.534 128.146 514.534 127.606 514.554C124.54 514.587 122.167 513.823 119.904 511.721C118.528 509.783 117.682 508.152 117.193 505.823C116.896 506.025 116.599 506.226 116.293 506.433C111.125 509.83 106.338 512.265 99.9567 511.224C97.4436 509.794 95.8305 508.425 94.921 505.648C94.3145 503.103 94.416 500.548 94.4568 497.948C94.4609 497.449 94.465 496.95 94.4692 496.436C94.4798 495.215 94.4947 493.994 94.5135 492.773C94.0644 492.773 93.6154 492.773 93.1527 492.773C89.3042 496.743 86.6304 501.788 83.8415 506.503C82.8107 508.232 81.7494 509.941 80.6787 511.646C80.4987 511.935 80.3186 512.225 80.133 512.523C77.4717 516.752 77.4717 516.752 75.916 517.524C74.6957 517.608 73.5133 517.563 72.2872 517.524C70.5519 515.802 71.239 510.165 71.2372 507.843C71.3187 501.859 72.281 495.976 73.1944 490.073C73.322 489.243 73.4497 488.413 73.5773 487.584C74.32 482.768 75.0688 477.953 75.8446 473.143C76.1217 471.42 76.3919 469.698 76.619 467.967C76.6898 467.443 76.7607 466.918 76.8338 466.378C76.8884 465.938 76.943 465.497 76.9992 465.044C77.6705 462.45 79.3206 462.268 81.8127 462.621ZM127.555 486.239C124.99 489.717 123.167 493.839 123.09 498.173C127.043 495.42 130.793 492.395 132.616 487.823C132.779 486.334 132.831 485.549 132.162 484.222C129.981 483.763 128.959 484.739 127.555 486.239Z" fill="#2C2E8F"/>
<path d="M783.947 465.772C785.827 466.605 786.482 467.268 787.547 469.007C788.541 472.543 787.583 475.112 785.921 478.299C785.322 479.249 784.863 479.965 783.947 480.623C782.955 480.482 782.955 480.482 782.132 480.173C782.176 479.862 782.219 479.552 782.264 479.232C782.613 476.292 782.48 474.024 781.679 471.172C780.602 471.043 780.602 471.043 779.411 471.172C774.955 474.902 774.166 483.348 773.588 488.723C773.564 489.169 773.539 489.614 773.514 490.073C774.447 490.999 776.332 490.6 777.58 490.61C780.156 490.606 782.731 490.574 785.308 490.523C785.756 490.517 786.205 490.512 786.667 490.505C791.466 490.509 791.466 490.509 795.719 488.641C796.714 487.511 797.578 486.338 798.462 485.123C800.582 483.247 802.452 482.622 805.275 482.662C806.389 482.924 806.749 483.42 807.534 484.223C808.077 484.325 808.619 484.427 809.178 484.532C811.001 484.901 811.715 485.627 812.949 486.979C815.052 488.924 816.948 489.155 819.705 489.096C823.936 488.818 828.013 487.521 832.039 486.271C832.935 486.023 832.935 486.023 833.843 486.023C834.025 485.494 834.025 485.494 834.211 484.954C834.75 483.773 834.75 483.773 836.111 482.873C837.727 482.732 837.727 482.732 839.286 482.873C840.317 484.408 840.228 485.004 839.961 486.77C839.726 487.889 839.399 488.953 839.059 490.045C838.07 493.435 838.045 496.918 837.925 500.424C838.134 499.972 838.344 499.52 838.559 499.054C841.664 492.527 845.436 487.114 851.448 482.873C853.923 482.103 856.789 481.849 859.262 482.766C860.615 483.602 861.54 484.502 861.966 486.023C862.199 489.161 862.199 489.161 861.512 490.523C858.165 490.748 858.165 490.748 856.721 489.595C855.654 488.582 855.654 488.582 854.113 488.639C848.954 490.287 845.643 495.878 843.22 500.421C840.997 504.769 839.803 509.007 839.071 513.828C838.832 514.824 838.832 514.824 837.925 515.724C835.161 516.029 835.161 516.029 833.775 515.002C829.854 509.971 831.957 497.579 832.028 491.423C831.757 491.579 831.485 491.734 831.205 491.895C830.844 492.098 830.483 492.302 830.111 492.511C829.755 492.713 829.399 492.915 829.033 493.124C824.872 495.229 819.352 494.915 814.791 494.573C814.342 494.425 813.893 494.276 813.431 494.123C813.506 494.42 813.58 494.717 813.657 495.023C814.397 499.428 813.548 503.126 811.049 506.837C808.124 510.698 803.855 514.005 798.916 514.824C797.793 514.9 796.667 514.944 795.542 514.965C794.659 514.99 794.659 514.99 793.758 515.016C791.859 514.795 791.163 514.367 789.844 513.024C787.255 508.072 787.761 503.326 789.39 498.174C789.82 497.111 790.281 496.069 790.751 495.023C790.201 495.121 789.651 495.218 789.085 495.319C783.542 496.25 778.222 496.534 772.607 496.374C772.576 496.862 772.576 496.862 772.545 497.36C772.264 501.425 771.776 505.446 771.225 509.483C771.076 510.577 770.932 511.672 770.789 512.767C769.784 520.274 768.754 527.237 762.628 532.375C761.454 532.957 760.564 532.901 759.254 532.91C758.815 532.916 758.376 532.922 757.923 532.929C756.731 532.825 756.731 532.825 755.37 531.925C755.194 530.044 755.149 528.542 756.277 526.975C757.31 526.764 757.31 526.764 758.517 526.75C760.241 526.753 760.241 526.753 761.582 525.785C765.504 518.761 766.244 507.729 766.37 499.805C766.382 499.356 766.393 498.907 766.405 498.444C766.378 497.253 766.378 497.253 765.569 496.609C764.896 495.924 764.896 495.924 764.718 494.602C764.924 493.004 765.283 492.583 766.37 491.423C768.685 488.383 768.897 484.873 769.483 481.212C770.497 474.906 772.869 470.112 778.05 466.222C779.844 465.332 781.992 465.58 783.947 465.772ZM798.916 491.817C795.602 495.823 793.411 501.981 793.926 507.174C794.486 508.59 794.486 508.59 795.74 509.424C797.918 509.942 799.763 509.62 801.694 508.524C806.256 505.276 808.076 501.154 809.214 495.762C809.568 493.294 809.568 493.294 808.896 490.954C808.109 489.979 807.301 489.283 806.173 488.723C802.882 488.409 801.147 489.545 798.916 491.817Z" fill="#2C2E8F"/>
<path d="M1149.81 462.961C1150.34 462.972 1150.34 462.972 1150.88 462.982C1151.82 463.074 1151.82 463.074 1152.73 463.524C1152.79 466.346 1152.58 468.915 1152.05 471.682C1151.98 472.057 1151.91 472.433 1151.84 472.819C1151.62 474.006 1151.39 475.192 1151.17 476.377C1150.94 477.565 1150.72 478.753 1150.5 479.94C1150.36 480.675 1150.23 481.41 1150.09 482.145C1149.41 485.72 1149.01 489.219 1149.01 492.859C1149.01 493.23 1149.01 493.601 1149.01 493.984C1149.01 499.153 1149.01 499.153 1150.46 504.026C1157.08 503.457 1162.83 496.334 1166.94 491.536C1167.76 490.502 1167.76 490.502 1168.37 489.091C1169.05 487.825 1169.05 487.825 1169.91 487.178C1171.18 486.843 1171.89 486.942 1173.14 487.375C1174.31 488.309 1174.89 488.819 1175.14 490.311C1175.13 490.734 1175.11 491.157 1175.09 491.594C1175.08 492.064 1175.06 492.534 1175.05 493.018C1174.89 495.639 1174.72 498.258 1174.5 500.875C1174.78 500.468 1175.06 500.06 1175.35 499.64C1178.88 494.564 1182.38 489.799 1188.56 487.825C1190.95 487.509 1193.38 487.194 1195.52 488.445C1196.27 489.175 1196.27 489.175 1196.53 490.3C1196.27 491.425 1196.27 491.425 1195.31 492.109C1193.9 492.829 1192.51 493.29 1191 493.76C1184.71 495.952 1180.48 500.013 1177.56 505.91C1176.37 508.613 1175.59 511.335 1174.89 514.192C1173.89 518.133 1173.89 518.133 1172.68 519.326C1171.04 519.383 1171.04 519.383 1169.51 519.326C1167.98 516.893 1167.97 514.901 1168.01 512.13C1168.02 511.704 1168.02 511.278 1168.02 510.84C1168.03 509.487 1168.05 508.135 1168.06 506.782C1168.07 505.862 1168.08 504.942 1168.08 504.022C1168.1 501.773 1168.12 499.524 1168.15 497.275C1167.75 497.704 1167.36 498.132 1166.95 498.573C1166.42 499.143 1165.89 499.713 1165.36 500.283C1165.1 500.564 1164.85 500.846 1164.58 501.136C1162.32 503.564 1159.94 505.654 1157.26 507.626C1156.95 507.872 1156.63 508.118 1156.3 508.371C1154.31 509.796 1152.62 510.235 1150.15 510.089C1148.44 509.744 1147.39 508.977 1146.37 507.626C1144.76 505.023 1144.25 502.3 1143.83 499.302C1143.71 498.18 1143.71 498.18 1143.2 497.275C1143.03 497.57 1142.86 497.865 1142.68 498.168C1140.51 501.746 1137.94 504.635 1135.03 507.626C1134.62 508.086 1134.62 508.086 1134.2 508.556C1131.17 511.839 1126.7 514.556 1122.19 514.962C1121.43 514.964 1121.43 514.964 1120.66 514.967C1120.15 514.974 1119.65 514.982 1119.13 514.99C1117.8 514.826 1117.8 514.826 1116.99 514.253C1115.11 511.6 1114.83 508.689 1115.22 505.536C1116.83 497.775 1121.1 490.494 1126.42 484.675C1126.69 484.365 1126.96 484.055 1127.24 483.736C1129.54 481.234 1131.86 479.934 1135.28 479.538C1138.46 479.414 1138.46 479.414 1140.02 479.724C1141.4 481.047 1142.09 482.333 1142.63 484.14C1142.74 484.496 1142.85 484.852 1142.97 485.218C1143.04 485.484 1143.12 485.75 1143.2 486.025C1144.25 483.421 1144.48 480.773 1144.79 478.009C1144.85 477.511 1144.9 477.014 1144.96 476.501C1145.23 474.23 1145.48 471.957 1145.71 469.682C1145.75 469.331 1145.78 468.98 1145.82 468.619C1145.89 467.977 1145.95 467.335 1146 466.692C1146.13 465.48 1146.27 464.581 1146.95 463.555C1147.97 462.932 1148.62 462.922 1149.81 462.961ZM1127.53 491.978C1122.69 498.889 1122.69 498.889 1120.89 506.866C1120.89 507.254 1120.89 507.643 1120.9 508.042C1120.87 508.971 1120.87 508.971 1121.43 509.426C1127.02 509.426 1130.77 505.465 1134.58 501.776C1138.24 498.433 1138.24 498.433 1140.02 494.125C1139.73 494.125 1139.43 494.125 1139.12 494.125C1139.1 493.336 1139.1 493.336 1139.08 492.531C1139.06 491.834 1139.03 491.137 1139 490.441C1139 490.095 1138.99 489.749 1138.98 489.392C1138.91 487.657 1138.76 486.639 1137.88 485.102C1136.92 484.14 1136.92 484.14 1135.7 484.015C1131.95 484.715 1129.56 489.08 1127.53 491.978Z" fill="#2C2E8F"/>
<path d="M63.6526 462.621C66.072 466.222 64.4791 472.011 63.6998 475.978C62.6046 481.221 61.4154 486.384 59.5702 491.422C59.4525 491.753 59.3349 492.083 59.2136 492.423C57.3308 497.677 55.1394 502.787 52.8513 507.876C52.7223 508.165 52.5933 508.453 52.4604 508.75C52.0897 509.576 51.7148 510.401 51.3399 511.225C51.0147 511.941 51.0147 511.941 50.6828 512.671C50.0947 513.825 49.5772 514.783 48.6838 515.724C46.5229 516.035 45.5968 516.124 43.836 514.824C41.6889 512.06 40.1077 509.165 38.7419 505.959C38.5862 505.599 38.4304 505.24 38.27 504.87C37.7789 503.736 37.2921 502.6 36.8052 501.464C36.4739 500.697 36.1422 499.93 35.8103 499.163C33.2972 493.348 33.2972 493.348 32.3543 490.972C30.3592 494.17 28.5748 497.439 26.8544 500.789C24.9019 504.545 22.9125 508.275 20.8159 511.955C20.6021 512.335 20.3883 512.716 20.1681 513.108C18.8395 515.413 17.374 517.359 15.5712 519.324C13.9931 519.234 13.3562 518.921 12.1692 517.861C8.64621 513.216 7.6857 506.457 6.32911 500.929C6.11083 500.051 5.89237 499.174 5.67374 498.296C3.97954 491.465 2.37981 484.615 0.866222 477.743C0.70305 477.018 0.531372 476.296 0.346179 475.577C0.109415 474.611 0.0557712 473.712 0.0354374 472.718C0.023743 472.374 0.0120487 472.03 0 471.676C0.186532 470.48 0.542373 470.088 1.50963 469.371C2.99783 469.371 3.61298 469.673 4.71317 470.665C7.14039 474.549 8.01202 479.195 9.04007 483.596C9.18757 484.217 9.33535 484.838 9.48341 485.459C9.86894 487.079 10.251 488.7 10.6322 490.321C11.2443 492.92 11.862 495.519 12.4791 498.117C12.6926 499.018 12.9048 499.919 13.1168 500.821C13.7279 503.407 14.3432 505.98 15.1176 508.523C16.3707 507.408 17.132 506.177 17.9721 504.735C18.3984 504.005 18.3984 504.005 18.8333 503.26C19.1353 502.736 19.4371 502.212 19.7386 501.689C19.8914 501.424 20.0441 501.16 20.2015 500.888C22.9073 496.205 25.589 491.505 27.6518 486.5C27.7713 486.212 27.8909 485.923 28.014 485.626C28.3323 484.845 28.6384 484.059 28.9435 483.273C29.7412 481.767 30.4227 481.032 31.9007 480.172C33.001 480.159 33.001 480.159 34.1687 480.622C34.872 481.674 35.3851 482.603 35.9034 483.74C36.0568 484.061 36.2102 484.382 36.3683 484.712C38.1248 488.424 39.7387 492.2 41.3412 495.979C41.7874 497.027 42.2343 498.074 42.6821 499.121C42.9567 499.764 43.2305 500.407 43.503 501.05C44.0867 502.42 44.6957 503.757 45.3752 505.083C45.9623 506.273 45.9623 506.273 45.9623 507.173C46.2616 507.173 46.561 507.173 46.8695 507.173C46.9893 506.785 47.1092 506.397 47.2327 505.997C47.7791 504.466 48.4539 503.121 49.2225 501.689C54.9394 490.576 58.4548 477.362 58.9323 464.885C59.4473 462.331 61.3765 462.375 63.6526 462.621Z" fill="#2C2E8F"/>
<path d="M504.988 370.371C532.424 370.371 532.424 370.371 539.83 377.413C544.678 382.584 546.051 388.391 545.938 395.277C545.685 401.41 542.747 406.696 538.315 410.857C528.819 418.611 516.682 416.273 504.988 416.273C504.988 401.126 504.988 385.978 504.988 370.371ZM510.885 375.771C510.885 387.503 510.885 399.235 510.885 411.323C524.301 411.877 524.301 411.877 535.324 406.044C539.078 401.965 540.242 397.013 540.082 391.585C539.787 387.097 537.814 383.522 534.683 380.344C527.548 374.14 520.962 375.771 510.885 375.771Z" fill="#2C2E8F"/>
<path d="M656.071 382.815C657.623 383.864 658.999 385.089 660.143 386.571C660.143 386.868 660.143 387.165 660.143 387.471C660.363 387.27 660.583 387.069 660.809 386.861C665.235 382.901 668.29 381.382 674.307 381.494C676.575 381.662 678.2 382.212 680.101 383.421C680.361 383.584 680.621 383.747 680.888 383.915C683.826 386.043 684.94 389.441 685.545 392.872C685.663 394.696 685.651 396.514 685.633 398.342C685.632 398.856 685.631 399.371 685.629 399.901C685.624 401.533 685.613 403.165 685.601 404.797C685.597 405.908 685.593 407.019 685.589 408.13C685.579 410.844 685.563 413.558 685.545 416.273C683.599 416.273 681.653 416.273 679.648 416.273C679.644 415.583 679.639 414.893 679.635 414.182C679.617 411.612 679.587 409.042 679.554 406.472C679.541 405.362 679.531 404.252 679.525 403.141C679.515 401.541 679.494 399.942 679.471 398.342C679.47 397.849 679.47 397.356 679.469 396.847C679.414 393.98 679.128 391.633 677.38 389.271C674.866 387.245 672.874 386.761 669.669 387.021C667.082 387.752 665.293 388.791 663.76 390.994C662.373 394.065 662.263 397.143 662.223 400.452C662.215 400.906 662.206 401.36 662.197 401.828C662.17 403.268 662.149 404.708 662.128 406.147C662.11 407.128 662.093 408.109 662.074 409.09C662.031 411.484 661.993 413.878 661.958 416.273C660.161 416.273 658.365 416.273 656.514 416.273C656.51 415.583 656.506 414.893 656.502 414.182C656.483 411.612 656.454 409.042 656.42 406.472C656.407 405.362 656.398 404.252 656.391 403.141C656.382 401.541 656.361 399.942 656.337 398.342C656.337 397.849 656.336 397.356 656.335 396.847C656.281 393.98 655.995 391.633 654.246 389.271C651.736 387.248 649.738 386.756 646.535 387.021C645.553 387.415 644.646 387.872 643.721 388.384C642.906 388.821 642.906 388.821 641.546 389.271C641.039 390.224 641.039 390.224 640.638 391.521C640.528 391.8 640.418 392.079 640.305 392.366C639.272 395.108 639.065 397.585 639.046 400.496C639.037 400.949 639.029 401.403 639.021 401.871C638.996 403.305 638.981 404.74 638.966 406.175C638.951 407.154 638.935 408.133 638.919 409.112C638.88 411.499 638.85 413.886 638.824 416.273C637.028 416.273 635.232 416.273 633.381 416.273C633.381 405.135 633.381 393.997 633.381 382.521C635.177 382.521 636.973 382.521 638.824 382.521C638.974 383.858 639.123 385.194 639.278 386.571C639.769 386.07 639.769 386.07 640.27 385.559C644.562 381.395 650.482 379.917 656.071 382.815Z" fill="#2C2E8F"/>
<path d="M762.18 368.568C763.977 368.568 765.773 368.568 767.623 368.568C767.623 384.31 767.623 400.052 767.623 416.271C765.827 416.271 764.031 416.271 762.18 416.271C762.031 414.489 761.881 412.706 761.727 410.87C761.352 411.344 760.978 411.817 760.593 412.305C757.995 415.3 754.856 416.943 750.867 417.285C745.903 417.465 741.971 416.294 738.141 413.113C734.359 409.398 732.756 404.767 732.583 399.564C732.652 394.484 734.143 389.894 737.619 386.103C741.534 382.459 745.773 381.442 751.018 381.496C755.687 381.847 758.538 384.306 761.727 387.469C761.876 381.232 762.026 374.995 762.18 368.568ZM741.315 390.619C738.513 394.576 738.238 397.982 738.593 402.77C739.375 405.879 741.312 408.684 743.946 410.549C746.937 412.321 749.961 412.76 753.348 411.944C756.729 410.771 759.135 408.838 760.993 405.792C762.729 402.09 762.836 397.931 761.5 394.079C759.925 390.708 757.25 388.189 753.752 386.85C748.997 385.631 744.457 386.809 741.315 390.619Z" fill="#2C2E8F"/>
<path d="M886.906 368.568C888.702 368.568 890.499 368.568 892.349 368.568C892.499 374.806 892.649 381.043 892.803 387.469C893.851 386.43 894.899 385.39 895.978 384.319C897.233 383.535 897.233 383.535 898.36 383.025C898.736 382.85 899.113 382.675 899.501 382.494C903.056 381.002 907.218 381.126 910.862 382.322C915.631 384.312 918.746 387.626 920.841 392.279C922.573 397.424 922.203 403.461 919.877 408.339C917.505 412.592 914.392 415.006 909.87 416.918C904.459 417.75 899.777 417.218 895.269 413.992C894.16 413.13 893.605 412.515 892.803 411.32C892.653 412.954 892.504 414.588 892.349 416.271C890.553 416.271 888.757 416.271 886.906 416.271C886.906 400.529 886.906 384.787 886.906 368.568ZM895.525 390.169C892.688 394.284 891.949 397.323 892.349 402.32C893.115 405.781 894.945 408.31 897.793 410.42C900.975 412.22 903.984 412.788 907.547 411.955C911.042 410.806 913.348 408.606 915.102 405.412C916.518 401.863 916.514 397.656 915.228 394.079C913.668 390.751 911.487 388.177 907.977 386.85C903.43 385.701 898.831 386.8 895.525 390.169Z" fill="#2C2E8F"/>
<path d="M502.752 481.968C503.731 483.424 503.86 484.157 503.601 485.872C502.442 488.941 499.399 491.268 496.855 493.218C497.497 495.666 499.157 496.808 501.051 498.337C507.876 503.898 507.876 503.898 508.348 507.401C508.411 511.794 507.046 514.395 504.077 517.599C501.87 519.677 499.413 521.027 496.402 521.57C494.672 521.513 494.672 521.513 493.227 521.12C492.546 520.388 492.546 520.388 492.319 519.32C492.404 517.688 492.404 517.688 492.773 516.169C494.139 515.266 494.997 515.028 496.572 514.679C498.852 514.092 499.962 513.513 501.391 511.669C502.041 510.379 501.984 509.503 501.845 508.069C500.546 505.741 498.941 504.38 496.827 502.838C495.063 501.537 493.609 500.406 492.319 498.619C492.02 498.619 491.721 498.619 491.412 498.619C490.833 499.272 490.833 499.272 490.25 500.137C486.094 505.809 480.988 510.961 475.083 514.819C474.786 515.025 474.49 515.23 474.184 515.442C471.411 517.119 468.247 516.994 465.103 516.619C461.759 515.075 460.423 512.465 459.13 509.194C458.106 506.14 458.216 503.128 458.214 499.941C458.209 499.416 458.203 498.892 458.198 498.352C458.182 489.261 458.182 489.261 460.341 486.609C462.127 484.97 463.157 485.074 465.557 485.118C465.653 488.262 465.561 491.283 465.103 494.4C464.374 499.434 464.342 504.202 466.067 509.053C466.91 510.003 466.91 510.003 468.42 510.207C476.962 509.587 484.894 500.237 490.158 494.331C491.016 493.139 491.445 492.07 491.922 490.687C493.809 485.96 497.356 481.543 502.752 481.968Z" fill="#2C2E8F"/>
<path d="M989.44 370.371C991.237 370.371 993.033 370.371 994.884 370.371C994.89 371.215 994.897 372.059 994.904 372.929C994.927 375.739 994.957 378.548 994.99 381.357C995.011 383.058 995.028 384.759 995.041 386.46C995.053 388.106 995.071 389.751 995.094 391.397C995.101 392.02 995.106 392.644 995.109 393.268C995.138 398.883 995.557 404.232 999.42 408.623C1003.28 411.736 1007.82 411.8 1012.57 411.323C1014.12 410.94 1015.33 410.398 1016.66 409.523C1016.91 409.36 1017.17 409.197 1017.44 409.029C1020.34 406.938 1021.27 403.866 1021.91 400.523C1022.28 397.839 1022.26 395.137 1022.29 392.433C1022.3 391.793 1022.3 391.154 1022.31 390.515C1022.34 388.847 1022.36 387.18 1022.37 385.512C1022.39 383.805 1022.41 382.097 1022.44 380.389C1022.48 377.05 1022.52 373.711 1022.55 370.371C1024.35 370.371 1026.15 370.371 1028 370.371C1028.04 374.319 1028.07 378.266 1028.09 382.214C1028.1 384.047 1028.11 385.881 1028.13 387.715C1028.15 389.489 1028.16 391.263 1028.17 393.037C1028.17 393.709 1028.18 394.381 1028.19 395.053C1028.27 401.11 1027.35 406.892 1023.46 411.773C1019.42 415.773 1014.48 417.265 1008.89 417.286C1003.34 417.278 998.696 416.027 994.428 412.337C990.979 408.782 989.38 404.038 989.389 399.185C989.389 398.873 989.389 398.561 989.389 398.24C989.389 397.213 989.393 396.185 989.396 395.157C989.397 394.444 989.398 393.73 989.398 393.016C989.4 391.14 989.404 389.264 989.409 387.388C989.414 385.472 989.416 383.556 989.418 381.641C989.423 377.884 989.431 374.128 989.44 370.371Z" fill="#2C2E8F"/>
<path d="M1159.29 384.156C1163.18 387.236 1165.2 391.655 1165.89 396.475C1165.89 398.109 1165.89 399.742 1165.89 401.425C1157.05 401.425 1148.22 401.425 1139.12 401.425C1140.6 406.31 1141.58 408.659 1145.9 411.213C1148.84 412.36 1152.46 412.314 1155.43 411.333C1157.44 410.366 1159.23 409.212 1160.9 407.726C1162.24 408.343 1163.36 409.07 1164.52 409.976C1164.19 412.049 1163.06 412.869 1161.5 414.17C1156.94 417.434 1151.42 417.788 1145.99 416.984C1141.94 415.943 1138.43 413.479 1136.06 410.056C1133.35 405.347 1132.46 400.279 1133.54 394.935C1134.95 389.99 1137.34 385.964 1141.88 383.326C1147.37 380.499 1154.11 380.767 1159.29 384.156ZM1142.3 389.275C1140.39 391.916 1139.6 393.619 1139.12 396.925C1146.01 396.925 1152.89 396.925 1159.99 396.925C1159.53 393.299 1159.06 390.953 1156.37 388.434C1152.02 385.244 1146.16 385.238 1142.3 389.275Z" fill="#2C2E8F"/>
<path d="M618.976 384.598C622.527 387.423 624.429 391.911 624.956 396.305C625.085 397.863 625.205 399.404 625.213 400.967C624.76 401.417 624.76 401.417 623.689 401.471C623.215 401.47 622.74 401.469 622.251 401.468C621.716 401.468 621.18 401.468 620.628 401.468C620.045 401.466 619.462 401.464 618.861 401.461C618.268 401.461 617.674 401.46 617.063 401.459C615.483 401.458 613.903 401.453 612.323 401.448C610.711 401.444 609.1 401.442 607.488 401.439C604.325 401.434 601.161 401.427 597.997 401.417C598.278 402.207 598.561 402.995 598.844 403.783C599.002 404.223 599.159 404.662 599.321 405.114C600.543 408.234 602.18 409.98 605.278 411.372C608.628 412.363 612.577 412.313 615.806 410.899C617.023 410.157 618.028 409.226 619.026 408.217C619.77 407.718 619.77 407.718 620.691 407.793C622.046 408.361 622.867 409.359 623.852 410.418C622.48 413.593 619.242 415.079 616.177 416.375C611.85 417.949 606.473 417.722 602.259 415.936C597.736 413.571 594.74 410.234 593.008 405.468C591.635 400.682 591.974 394.525 594.369 390.167C596.721 386.031 599.854 383.18 604.509 381.829C609.924 380.869 614.428 381.606 618.976 384.598ZM600.48 390.483C599.276 392.346 597.997 394.657 597.997 396.917C605.033 396.917 612.068 396.917 619.317 396.917C618.392 392.329 617.734 390.795 614.582 387.748C609.644 384.641 603.993 386.099 600.48 390.483Z" fill="#2C2E8F"/>
<path d="M579.006 384.001C583.159 386.787 584.935 390.851 586.042 395.545C586.243 397.495 586.184 399.463 586.184 401.423C577.203 401.423 568.222 401.423 558.968 401.423C561.054 407.176 561.054 407.176 565.319 410.874C568.588 412.21 572.372 412.43 575.748 411.333C577.413 410.536 578.693 409.755 580.004 408.455C580.247 408.214 580.49 407.972 580.741 407.724C582.471 407.724 583.565 408.898 584.823 409.974C584.586 411.764 583.796 412.454 582.414 413.574C577.869 416.997 573.197 417.671 567.587 417.174C563.313 416.473 559.57 414.26 556.858 410.902C553.5 405.803 552.721 400.296 553.835 394.376C554.705 391.316 555.85 388.883 558.061 386.573C558.327 386.291 558.593 386.009 558.867 385.718C564.427 380.372 572.537 380.21 579.006 384.001ZM561.451 390.458C560.34 392.228 558.968 394.78 558.968 396.923C566.004 396.923 573.039 396.923 580.287 396.923C579.746 392.629 578.615 390.248 575.218 387.557C570.49 384.504 564.759 386.345 561.451 390.458Z" fill="#2C2E8F"/>
<path d="M718.649 383.419C721.931 385.713 724.048 388.243 725.453 391.97C725.564 392.26 725.674 392.55 725.788 392.849C726.688 395.741 726.361 398.265 726.361 401.42C717.529 401.42 708.698 401.42 699.598 401.42C701.075 406.305 702.052 408.654 706.374 411.208C709.315 412.355 712.939 412.309 715.907 411.328C717.916 410.361 719.706 409.207 721.371 407.721C724.091 408.669 724.091 408.669 725 409.971C724.767 412.032 723.499 412.897 721.972 414.165C717.672 417.248 712.907 417.531 707.763 417.171C703.108 416.233 699.769 414.26 696.962 410.477C693.678 405.527 693.057 400.21 694.212 394.473C695.354 389.956 697.562 386.56 701.413 383.87C706.589 380.807 713.317 380.432 718.649 383.419ZM702.774 389.27C700.87 391.911 700.074 393.614 699.598 396.92C706.634 396.92 713.669 396.92 720.917 396.92C720.002 392.834 719.097 389.922 715.588 387.47C711.393 385.187 706.108 385.783 702.774 389.27Z" fill="#2C2E8F"/>
<path d="M953.163 383.415C957.387 386.229 959.833 390.239 960.874 395.116C960.874 397.195 960.874 399.274 960.874 401.416C952.042 401.416 943.211 401.416 934.111 401.416C935.908 407.263 935.908 407.263 940.207 410.81C943.593 412.343 947.15 412.459 950.648 411.204C952.665 410.236 954.314 409.298 955.884 407.716C956.735 407.688 956.735 407.688 957.699 408.166C958.533 409.023 959.234 409.917 959.967 410.866C957.199 414.134 953.404 416.575 949.08 417.167C943.744 417.54 938.847 417.059 934.565 413.566C930.643 409.931 928.626 406.116 928.424 400.776C928.389 396.973 928.622 393.572 930.483 390.165C930.68 389.802 930.878 389.439 931.082 389.065C933.32 385.387 936.345 383.266 940.437 381.928C944.822 380.938 949.183 381.3 953.163 383.415ZM936.211 390.893C934.912 392.779 934.111 394.594 934.111 396.916C941.147 396.916 948.182 396.916 955.431 396.916C954.569 393.067 953.933 390.93 951.206 388.225C945.666 384.773 940.34 385.878 936.211 390.893Z" fill="#2C2E8F"/>
<path d="M1081.08 483.772C1082.23 485.778 1082.02 487.424 1081.53 489.622C1080.95 491.483 1080.28 493.307 1079.59 495.131C1076.46 503.464 1073.86 511.954 1071.26 520.462C1071.11 520.955 1070.96 521.449 1070.8 521.957C1070.52 522.884 1070.24 523.811 1069.95 524.739C1067.89 531.508 1067.89 531.508 1066.57 532.824C1063.79 533.124 1063.79 533.124 1062.48 532.149C1061.38 529.421 1062.8 526.235 1063.79 523.624C1063.91 523.275 1064.04 522.927 1064.17 522.569C1064.58 521.467 1064.99 520.367 1065.4 519.267C1065.81 518.164 1066.22 517.06 1066.63 515.957C1066.88 515.273 1067.13 514.59 1067.39 513.907C1067.72 513.013 1068.05 512.119 1068.38 511.223C1068.56 510.739 1068.74 510.255 1068.92 509.756C1069.37 508.45 1069.37 508.45 1069.29 506.723C1068.8 507.032 1068.32 507.341 1067.83 507.66C1067.18 508.07 1066.53 508.479 1065.88 508.889C1065.57 509.092 1065.25 509.295 1064.93 509.505C1060.85 512.07 1057.39 513.13 1052.5 512.573C1050.27 511.858 1048.8 510.444 1047.51 508.523C1045.43 502.312 1048.8 493.836 1051.6 488.272C1053.01 485.772 1053.01 485.772 1054.32 485.122C1055.68 485.038 1055.68 485.038 1057.04 485.122C1057.95 486.022 1057.95 486.022 1058.11 487.4C1057.91 489.616 1057.16 491.239 1056.19 493.222C1054.54 496.666 1053.27 499.65 1053.35 503.545C1053.37 504.317 1053.37 504.317 1053.38 505.104C1053.39 505.49 1053.4 505.876 1053.41 506.273C1056.45 507.28 1059.06 507 1061.94 505.626C1069.75 501.381 1072.31 497.605 1075.06 489.246C1075.32 488.482 1075.32 488.482 1075.58 487.703C1075.73 487.24 1075.89 486.777 1076.04 486.299C1077.16 483.67 1078.29 483.615 1081.08 483.772Z" fill="#2C2E8F"/>
<path d="M849.445 383.545C853.975 386.37 856.469 389.539 858.177 394.588C859.157 400.051 858.52 405.482 855.29 410.078C852.194 413.826 848.687 416.227 843.837 417.166C838.033 417.588 832.959 416.93 828.399 413.076C824.554 409.367 822.634 404.86 822.404 399.559C822.487 394.688 824.102 390.138 827.456 386.549C833.348 381.14 842.283 379.669 849.445 383.545ZM831.513 390.107C828.76 393.282 828.052 396.685 828.228 400.802C828.685 404.519 830.069 407.131 832.864 409.653C835.716 411.842 838.424 412.558 842.028 412.413C845.803 411.864 848.433 409.871 850.809 406.99C852.84 404.038 853.311 400.882 852.909 397.365C852.113 393.404 850.064 390.454 846.729 388.168C841.762 384.995 835.656 386.224 831.513 390.107Z" fill="#2C2E8F"/>
<path d="M413.382 479.272C414.927 480.254 415.942 481.142 416.558 482.873C417.034 485.797 416.422 488.112 414.743 490.523C410.847 495.444 405.922 498.865 400.682 502.223C400.71 502.78 400.738 503.337 400.767 503.911C400.783 504.224 400.798 504.538 400.815 504.86C401.301 506.323 402.107 506.818 403.403 507.624C408.164 508.554 412.67 506.981 416.65 504.449C419.182 502.625 421.409 500.684 423.445 498.324C424.269 497.723 424.269 497.723 425.504 497.853C425.845 497.959 426.186 498.064 426.537 498.173C426.537 501.791 424.926 503.72 422.454 506.274C417.52 511.038 411.218 514.053 404.346 514.067C400.892 514.003 399.085 513.24 396.684 510.858C393.444 506.173 393.443 501.18 394.388 495.783C395.784 489.373 399.052 484.579 404.31 480.622C407.12 478.996 410.178 478.761 413.382 479.272ZM405.218 486.023C402.123 488.828 400.471 492.767 399.775 496.823C401.996 495.808 403.776 494.285 405.671 492.773C405.971 492.543 406.27 492.314 406.578 492.077C408.488 490.558 409.675 489.164 410.661 486.923C410.61 485.645 410.61 485.645 410.207 484.673C407.95 483.882 407.012 484.569 405.218 486.023Z" fill="#2C2E8F"/>
<path d="M205.62 479.272C207.164 480.254 208.18 481.142 208.795 482.873C209.271 485.797 208.66 488.112 206.981 490.523C203.084 495.444 198.159 498.865 192.919 502.223C192.947 502.78 192.975 503.337 193.004 503.911C193.02 504.224 193.036 504.538 193.052 504.86C193.539 506.323 194.344 506.818 195.641 507.624C200.401 508.554 204.908 506.981 208.887 504.449C211.419 502.625 213.646 500.684 215.682 498.324C216.506 497.723 216.506 497.723 217.741 497.853C218.082 497.959 218.423 498.064 218.774 498.173C218.774 501.791 217.163 503.72 214.692 506.274C209.757 511.038 203.455 514.053 196.584 514.067C193.129 514.003 191.322 513.24 188.922 510.858C185.681 506.173 185.681 501.18 186.625 495.783C188.021 489.373 191.29 484.579 196.548 480.622C199.357 478.996 202.416 478.761 205.62 479.272ZM197.455 486.023C194.361 488.828 192.708 492.767 192.012 496.823C194.233 495.808 196.013 494.285 197.909 492.773C198.208 492.543 198.507 492.314 198.816 492.077C200.726 490.558 201.912 489.164 202.898 486.923C202.847 485.645 202.847 485.645 202.445 484.673C200.187 483.882 199.25 484.569 197.455 486.023Z" fill="#2C2E8F"/>
<path d="M1273.87 382.523C1275.97 382.523 1278.06 382.523 1280.22 382.523C1282.48 386.878 1284.45 391.316 1286.37 395.826C1286.96 397.196 1287.54 398.566 1288.13 399.935C1288.34 400.422 1288.34 400.422 1288.55 400.92C1289.67 403.507 1290.82 406.073 1292.01 408.624C1292.74 407.54 1293.19 406.709 1293.65 405.52C1293.79 405.169 1293.93 404.819 1294.07 404.458C1294.29 403.89 1294.29 403.89 1294.52 403.312C1294.67 402.918 1294.83 402.524 1294.99 402.118C1295.48 400.856 1295.97 399.593 1296.46 398.33C1296.79 397.496 1297.12 396.663 1297.44 395.83C1299.18 391.389 1299.18 391.389 1300.9 386.94C1301.1 386.409 1301.31 385.879 1301.52 385.332C1301.69 384.88 1301.86 384.428 1302.04 383.962C1302.45 382.973 1302.45 382.973 1302.9 382.523C1303.89 382.49 1304.88 382.485 1305.88 382.495C1306.69 382.501 1306.69 382.501 1307.52 382.507C1307.94 382.512 1308.36 382.517 1308.8 382.523C1307.76 385.73 1306.55 388.836 1305.26 391.952C1305.05 392.463 1304.84 392.975 1304.63 393.501C1304.18 394.582 1303.74 395.662 1303.29 396.742C1302.63 398.362 1301.96 399.982 1301.3 401.603C1300.23 404.208 1299.15 406.809 1298.07 409.409C1297.67 410.364 1297.27 411.32 1296.88 412.276C1296.34 413.561 1295.8 414.844 1295.26 416.127C1295.11 416.495 1294.96 416.864 1294.8 417.244C1293.07 421.302 1291.14 424.673 1287.02 426.625C1283.25 427.872 1279.28 427.174 1275.68 425.725C1275.93 423.947 1276.31 422.417 1277.05 420.775C1277.49 420.923 1277.92 421.072 1278.38 421.225C1280.79 421.9 1283.17 422.083 1285.55 421.225C1286.99 419.958 1288.14 418.515 1288.84 416.724C1288.61 414.781 1287.84 413.116 1287.01 411.363C1286.8 410.907 1286.8 410.907 1286.58 410.441C1286.12 409.441 1285.65 408.442 1285.18 407.443C1284.86 406.746 1284.53 406.05 1284.21 405.354C1283.53 403.894 1282.86 402.435 1282.18 400.977C1280.62 397.636 1279.07 394.29 1277.53 390.944C1277.05 389.9 1276.57 388.857 1276.08 387.815C1275.79 387.179 1275.5 386.544 1275.2 385.908C1275.07 385.616 1274.93 385.324 1274.79 385.023C1273.87 383.024 1273.87 383.024 1273.87 382.523Z" fill="#2C2E8F"/>
<path d="M1062.91 382.874C1064.2 383.641 1065.13 384.515 1066.09 385.665C1066.41 385.981 1066.73 386.296 1067.05 386.621C1069.39 390.171 1069.46 394.358 1069.4 398.468C1069.4 398.98 1069.39 399.493 1069.39 400.021C1069.38 401.639 1069.37 403.257 1069.35 404.875C1069.34 405.98 1069.34 407.085 1069.33 408.19C1069.32 410.882 1069.29 413.574 1069.27 416.267C1067.47 416.267 1065.67 416.267 1063.82 416.267C1063.82 415.649 1063.81 415.032 1063.8 414.396C1063.78 412.09 1063.74 409.783 1063.7 407.477C1063.69 406.482 1063.68 405.487 1063.66 404.492C1063.65 403.055 1063.63 401.618 1063.6 400.182C1063.6 399.742 1063.59 399.303 1063.59 398.85C1063.52 395.426 1063.12 392.099 1061.02 389.293C1058.53 387.485 1056.04 386.644 1052.94 387.015C1049.87 387.861 1047.88 388.857 1046.13 391.515C1044.62 394.515 1044.69 397.781 1044.63 401.061C1044.62 401.496 1044.61 401.932 1044.6 402.381C1044.57 403.766 1044.54 405.15 1044.52 406.535C1044.5 407.476 1044.48 408.418 1044.46 409.36C1044.41 411.662 1044.36 413.964 1044.32 416.267C1042.52 416.267 1040.72 416.267 1038.87 416.267C1038.87 405.129 1038.87 393.99 1038.87 382.515C1040.67 382.515 1042.47 382.515 1044.32 382.515C1044.47 384 1044.62 385.485 1044.77 387.015C1045.09 386.607 1045.41 386.198 1045.73 385.778C1049.91 380.829 1057.2 380.212 1062.91 382.874Z" fill="#2C2E8F"/>
<path d="M1223.97 385.216C1223.42 387.24 1222.79 388.294 1221.25 389.717C1220.91 389.559 1220.56 389.402 1220.21 389.24C1219.76 389.035 1219.31 388.831 1218.84 388.62C1218.39 388.416 1217.95 388.212 1217.49 388.003C1215.49 387.129 1213.96 386.931 1211.78 386.904C1211.23 386.892 1210.68 386.881 1210.11 386.869C1208.44 387.027 1207.62 387.379 1206.28 388.367C1205.44 389.466 1205.38 390.103 1205.32 391.489C1206.08 393.546 1207.54 394.152 1209.46 395.117C1211.6 395.932 1213.8 396.584 1216 397.231C1219.29 398.279 1221.66 399.743 1223.97 402.317C1225.39 405.239 1224.95 408.396 1223.94 411.402C1221.93 414.3 1219.56 416.129 1216.09 416.973C1210.15 417.946 1204.04 416.428 1199.03 413.118C1198.42 412.132 1198.42 412.132 1198.12 411.318C1198.87 410.278 1199.62 409.239 1200.39 408.167C1202.57 408.709 1204.35 409.672 1206.34 410.699C1209.61 412.251 1213.61 412.356 1217.03 411.205C1218.62 410.012 1218.89 409.225 1219.18 407.296C1218.97 405.837 1218.64 405.245 1217.57 404.242C1215.18 402.642 1212.09 402.05 1209.36 401.224C1205.91 400.122 1202.25 398.799 1200.29 395.559C1199.3 393.089 1199.5 389.753 1200.28 387.249C1201.7 384.69 1204.11 383.244 1206.74 382.066C1212.89 380.467 1218.58 382.282 1223.97 385.216Z" fill="#2C2E8F"/>
<path d="M799.853 372.164C801.799 372.164 803.745 372.164 805.75 372.164C805.75 375.58 805.75 378.995 805.75 382.515C809.193 382.515 812.636 382.515 816.183 382.515C816.183 384 816.183 385.485 816.183 387.015C812.74 387.015 809.297 387.015 805.75 387.015C805.784 390.123 805.821 393.23 805.869 396.337C805.884 397.394 805.897 398.452 805.907 399.509C805.922 401.028 805.946 402.547 805.972 404.066C805.975 404.539 805.977 405.012 805.98 405.5C805.994 406.162 805.994 406.162 806.008 406.837C806.013 407.225 806.018 407.613 806.023 408.012C806.244 409.302 806.662 409.921 807.565 410.866C808.95 411.324 809.914 411.376 811.363 411.372C811.788 411.373 812.212 411.375 812.65 411.376C814.093 411.339 814.093 411.339 816.183 410.866C816.183 412.499 816.183 414.133 816.183 415.816C811.662 417.311 807.947 417.912 803.482 415.816C801.337 414.122 800.361 412.169 799.853 409.516C799.734 407.772 799.748 406.034 799.765 404.286C799.766 403.791 799.767 403.296 799.769 402.786C799.774 401.214 799.785 399.641 799.797 398.068C799.801 396.999 799.805 395.929 799.809 394.859C799.819 392.244 799.835 389.63 799.853 387.015C798.356 387.015 796.86 387.015 795.317 387.015C795.317 385.53 795.317 384.045 795.317 382.515C796.814 382.515 798.311 382.515 799.853 382.515C799.853 379.099 799.853 375.683 799.853 372.164Z" fill="#2C2E8F"/>
<path d="M1252.52 372.164C1254.46 372.164 1256.41 372.164 1258.41 372.164C1258.41 375.58 1258.41 378.995 1258.41 382.515C1261.86 382.515 1265.3 382.515 1268.85 382.515C1268.85 384 1268.85 385.485 1268.85 387.015C1265.4 387.015 1261.96 387.015 1258.41 387.015C1258.43 390.115 1258.45 393.213 1258.48 396.312C1258.49 397.367 1258.5 398.421 1258.5 399.475C1258.51 400.991 1258.53 402.506 1258.55 404.022C1258.55 404.493 1258.54 404.964 1258.54 405.449C1258.59 408.165 1258.59 408.165 1259.94 410.491C1261.38 411.482 1262.12 411.568 1263.86 411.485C1264.32 411.47 1264.77 411.455 1265.25 411.439C1266.74 411.324 1266.74 411.324 1268.85 410.866C1268.85 412.499 1268.85 414.133 1268.85 415.816C1264.37 417.296 1261.03 417.773 1256.6 415.816C1254.36 414.414 1253.3 412.752 1252.71 410.19C1252.44 407.998 1252.46 405.833 1252.47 403.627C1252.47 403.151 1252.47 402.676 1252.48 402.186C1252.48 400.673 1252.48 399.16 1252.49 397.647C1252.49 396.618 1252.49 395.59 1252.5 394.561C1252.5 392.046 1252.51 389.53 1252.52 387.015C1251.02 387.015 1249.52 387.015 1247.98 387.015C1247.98 385.53 1247.98 384.045 1247.98 382.515C1249.48 382.515 1250.98 382.515 1252.52 382.515C1252.52 379.099 1252.52 375.683 1252.52 372.164Z" fill="#2C2E8F"/>
<path d="M1093.32 382.523C1095.42 382.523 1097.51 382.523 1099.67 382.523C1103.36 391.201 1107 399.894 1110.56 408.624C1111.31 407.511 1111.79 406.597 1112.29 405.374C1112.45 404.993 1112.6 404.611 1112.77 404.217C1112.94 403.805 1113.1 403.393 1113.28 402.969C1113.45 402.542 1113.63 402.115 1113.81 401.675C1114.37 400.307 1114.93 398.939 1115.49 397.57C1115.87 396.661 1116.24 395.751 1116.61 394.841C1117.31 393.154 1118 391.468 1118.69 389.78C1118.84 389.401 1119 389.023 1119.16 388.633C1119.49 387.821 1119.82 387.008 1120.14 386.194C1120.3 385.785 1120.46 385.377 1120.63 384.956C1120.78 384.586 1120.92 384.216 1121.07 383.835C1121.45 382.973 1121.45 382.973 1121.9 382.523C1122.89 382.49 1123.88 382.485 1124.88 382.495C1125.69 382.501 1125.69 382.501 1126.52 382.507C1126.94 382.512 1127.36 382.517 1127.8 382.523C1126.77 385.767 1125.49 388.851 1124.12 391.964C1123.78 392.727 1123.78 392.727 1123.44 393.506C1122.73 395.124 1122.02 396.741 1121.3 398.358C1120.83 399.435 1120.36 400.512 1119.88 401.59C1119.2 403.147 1118.52 404.705 1117.83 406.262C1116.3 409.743 1114.78 413.229 1113.28 416.724C1111.63 416.724 1109.99 416.724 1108.29 416.724C1105.97 412.316 1104.05 407.742 1102.08 403.167C1101.72 402.319 1101.35 401.471 1100.99 400.623C1098.4 394.604 1095.84 388.574 1093.32 382.523Z" fill="#2C2E8F"/>
<path d="M493.671 369.462C494.27 370.65 494.869 371.838 495.486 373.062C495.075 373.367 494.664 373.672 494.24 373.987C487.472 379.082 482.259 384.512 480.714 393.132C479.729 400.799 481.567 407.81 486.187 414.042C488.624 416.94 492.063 419.966 495.486 421.664C494.885 423.452 494.13 424.425 492.764 425.715C485.129 421.525 479.069 415.954 475.981 407.714C475.827 407.311 475.673 406.907 475.515 406.492C473.28 399.37 474.079 390.938 477.2 384.256C478.61 381.607 480.327 379.346 482.331 377.112C482.588 376.826 482.845 376.539 483.109 376.244C485.166 374.084 487.538 372.426 490.043 370.812C490.63 370.433 490.63 370.433 491.23 370.046C492.311 369.462 492.311 369.462 493.671 369.462Z" fill="#2C2E8F"/>
<path d="M1316.5 369.462C1323.03 371.297 1328.56 377.423 1331.91 383.066C1335.63 389.744 1336.42 397.984 1334.49 405.37C1331.9 413.904 1326.27 419.954 1318.99 424.927C1318.47 425.187 1317.94 425.447 1317.4 425.715C1315.65 425.109 1315.05 424.19 1314.23 422.564C1314.23 422.267 1314.23 421.97 1314.23 421.664C1314.98 421.063 1315.76 420.497 1316.55 419.949C1317.01 419.623 1317.47 419.298 1317.94 418.963C1318.36 418.666 1318.78 418.37 1319.22 418.064C1324.55 414.253 1328.01 408.077 1329.07 401.686C1329.89 394.259 1328.32 387.063 1323.57 381.152C1320.81 377.959 1317.71 375.449 1314.23 373.062C1315.99 369.968 1315.99 369.968 1316.5 369.462Z" fill="#2C2E8F"/>
<path d="M1193.54 381.617C1193.54 383.548 1193.54 385.478 1193.54 387.467C1192.64 387.635 1191.75 387.802 1190.82 387.974C1187.39 388.759 1185.47 390.118 1183 392.502C1179.97 397.329 1180.09 402.307 1180.05 407.803C1180.04 408.626 1180.02 409.449 1180.01 410.272C1179.97 412.271 1179.95 414.27 1179.93 416.269C1177.99 416.269 1176.04 416.269 1174.04 416.269C1174.04 405.131 1174.04 393.993 1174.04 382.517C1175.98 382.517 1177.93 382.517 1179.93 382.517C1180.08 384.596 1180.23 386.675 1180.39 388.818C1180.75 388.279 1181.12 387.741 1181.49 387.186C1184.63 383.059 1188.43 381.617 1193.54 381.617Z" fill="#2C2E8F"/>
<path d="M1233.95 382.521C1235.75 382.521 1237.55 382.521 1239.4 382.521C1239.4 393.66 1239.4 404.798 1239.4 416.273C1237.6 416.273 1235.8 416.273 1233.95 416.273C1233.95 405.135 1233.95 393.997 1233.95 382.521Z" fill="#2C2E8F"/>
<path d="M1080.18 382.521C1081.97 382.521 1083.77 382.521 1085.62 382.521C1085.62 393.66 1085.62 404.798 1085.62 416.273C1083.82 416.273 1082.03 416.273 1080.18 416.273C1080.18 405.135 1080.18 393.997 1080.18 382.521Z" fill="#2C2E8F"/>
<path d="M468.324 465.18C468.719 465.181 469.113 465.183 469.519 465.185C470.536 465.32 470.536 465.32 471.443 466.22C471.739 468.163 471.645 469.834 470.819 471.621C470.082 472.521 470.082 472.521 469.175 472.971C468.278 473.026 467.38 473.05 466.482 473.055C466.001 473.062 465.519 473.068 465.023 473.074C463.732 472.971 463.732 472.971 462.371 472.071C462.09 470.318 462.3 469.5 463.165 467.936C464.737 465.987 465.76 465.13 468.324 465.18Z" fill="#2C2E8F"/>
<path d="M1079.71 369.462C1081.81 369.462 1083.91 369.462 1086.07 369.462C1086.07 371.393 1086.07 373.323 1086.07 375.312C1083.97 375.312 1081.87 375.312 1079.71 375.312C1079.71 373.382 1079.71 371.451 1079.71 369.462Z" fill="#2C2E8F"/>
<path d="M1233.95 369.462C1235.9 369.462 1237.85 369.462 1239.85 369.462C1239.85 371.393 1239.85 373.323 1239.85 375.312C1237.9 375.312 1235.96 375.312 1233.95 375.312C1233.95 373.382 1233.95 371.451 1233.95 369.462Z" fill="#2C2E8F"/>
</svg>
